<svg viewBox="0 0 554.81 542.42" xmlns="http://www.w3.org/2000/svg" fill="#CB0C0C">
  <path d="m.03 270.84c-.19-16.05 2.04-31.11 4.23-46.27 4.4-30.44 15.92-58.32 30.79-84.62 23.11-40.86 55.11-73.52 95.2-98.45 15.51-9.64 32.08-16.35 48.68-23.44 22.39-9.57 45.99-13.2 69.83-16.16 14.1-1.75 28.29-2.4 42.43-1.5 11.51.74 22.94 2.7 34.39 4.26 5.31.72 10.69 1.37 15.84 2.77 8.65 2.35 17.16 5.25 25.71 7.94 33.18 10.44 62.09 28.5 89.54 49.42 10.94 8.34 20.86 17.44 28.93 28.57.92 1.27 1.89 2.54 3 3.64 14.95 14.91 25.67 32.86 35.43 51.24 14.2 26.74 24 55.15 28.18 85.3 3.09 22.31 3.86 44.63-.06 66.95-.03.18-.07.37-.08.55-.69 27.68-10.08 52.96-20.59 78.12-6.87 16.45-16.33 31.1-26.64 45.39-2.38 3.31-4.71 6.65-7.16 9.91-18.01 23.98-39.14 44.52-65.11 59.94-13.7 8.13-26.8 17.33-41.71 23.19-12.57 4.93-25.26 9.62-38.09 13.84-16.88 5.56-34.58 7.37-52.07 9.55-14.04 1.75-28.22 2.06-42.57.06-18.91-2.63-37.83-4.86-56.26-9.97-68.23-18.94-121.16-58.69-159.72-117.86-10.35-15.88-18.85-32.73-26.18-50.19-5.79-13.79-8.32-28.39-11.1-42.94-3.15-16.51-5.15-33.12-4.84-49.24zm278.66 261.29c14.12.03 31.13-.29 47.77-3.68 17.95-3.65 35.81-7.89 52.57-15.7 3-1.4 6.28-2.22 9.41-3.34 1.39-.5 2.85-.91 4.11-1.65 12.36-7.29 25.01-14.15 36.96-22.06 26.82-17.76 50.05-39.46 68.12-66.21 7.73-11.45 15.55-23.1 21.27-35.6 6.67-14.59 11.93-29.97 16.32-45.42 9.81-34.48 11.5-69.64 6.26-105.12-1.19-8.06-1.97-16.18-5.92-23.54-.46-.86-.48-1.96-.68-2.96-.93-4.59-1.41-9.33-2.87-13.75-5.38-16.33-13.13-31.57-21.47-46.6-12.04-21.68-26.28-41.64-43.59-59.41-41.81-42.92-93.48-66.12-151.85-75.86-4.83-.81-9.71-1.32-14.59-1.72-4.21-.34-8.45-.26-12.67-.49-3.14-.17-6.26-.68-9.4-.81-10.87-.44-21.62.72-32.38 2.16-23.89 3.19-47.13 9.01-69.5 17.9-12.2 4.85-23.91 10.94-35.83 16.49-.65.3-1.2.84-1.79 1.29-2.86 2.18-5.64 4.48-8.6 6.52-2.59 1.78-5.62 2.97-8.04 4.93-18.58 15.01-37.27 29.83-51.85 49.18-12.79 16.98-25.83 33.78-34.11 53.5-7.22 17.22-13.67 34.73-18.7 52.8-2.95 10.6-3.29 21.39-4.33 32.11-.88 9.07-.52 18.23-1.66 27.38-.85 6.86.28 13.99.68 20.98.25 4.33.66 8.67 1.22 12.97 1.46 11.29 5.85 22.03 6.3 33.51.02.45.18.91.36 1.34 2.18 5.18 4.39 10.36 6.58 15.54.79 1.87 1.59 3.75 2.31 5.65 2.45 6.46 4.26 13.25 7.41 19.35 5.87 11.34 12.2 22.46 18.92 33.32 7.78 12.56 17.71 23.4 27.9 34.12 9.89 10.4 20.24 20.04 32.07 28.13 5.61 3.84 10.15 9.08 16.49 12.07 6.08 2.86 12.29 5.73 16.88 10.99.35.4.89.68 1.39.9 7.29 3.19 14.49 6.64 21.91 9.48 11.49 4.41 22.97 9.02 34.77 12.44 22.47 6.51 45.68 8.16 71.81 8.86z" />
  <path d="m279.21 526.54c-35.4-1.02-70.07-5.76-102.9-20.1-21.08-9.21-40.44-21.37-59.14-34.6-5.1-3.61-9.59-8.09-14.34-12.19-1.54-1.33-2.92-2.88-4.56-4.06-8.23-5.89-15.04-13.18-20.95-21.32-8.53-11.76-16.99-23.58-25.29-35.5-1.93-2.77-3.07-6.08-4.66-9.1-.76-1.45-1.72-2.8-2.61-4.17-.55-.85-1.31-1.59-1.68-2.51-8.68-21.78-17.36-43.59-21.41-66.81-1.68-9.63-2.31-19.46-3.19-29.22-.58-6.45-.76-12.93-1.11-19.4-.54-10.06.63-19.95 2.93-29.75 1.14-4.86 2.4-9.8 2.62-14.74.27-6.09 2.42-11.66 3.69-17.45 1.7-7.75 4.24-15.32 6.63-22.91.53-1.67 2.02-3.02 2.95-4.59.54-.91 1.27-1.99 1.18-2.92-.4-4.23 1.04-7.89 3.27-11.25 4.3-6.49 7.9-13.29 11.28-20.34 3.45-7.19 8.52-13.65 13.28-20.15 18.61-25.39 40.66-47.43 66.65-65.18 17.41-11.89 36.55-20.73 56.38-27.96 13.79-5.03 27.99-8.43 42.49-10.69 6.85-1.07 13.58-2.95 20.44-3.91 12.9-1.8 25.85-1.37 38.8-.27 6.5.55 13.03.71 19.53 1.2 12.61.95 24.79 4.11 37.06 6.99 17.12 4.03 32.83 11.24 48.29 19.34 18.83 9.87 37.45 20.08 53.13 34.66 10.37 9.64 21.07 19.18 29.94 30.12 9.68 11.95 17.87 25.22 25.86 38.42 5.1 8.43 8.24 18.03 13.04 26.67 4.64 8.36 7.54 17.25 10.15 26.29 2.78 9.59 5.95 19.16 7.61 28.96 2.58 15.23 4.48 30.62 3.8 46.15-1.38 31.73-5.48 62.91-19 92.16-1.62 3.51-2.81 7.23-4.25 10.83-1.1 2.75-1.93 5.68-3.48 8.16-8.81 14.03-17.54 28.12-26.79 41.85-10.33 15.32-24.96 26.46-38.6 38.57-21.04 18.68-45.85 30.73-71.21 42.06-13.12 5.86-26.85 9.59-40.68 12.98-6.32 1.55-13.02 1.56-19.52 2.44-11.83 1.61-23.61 3.79-35.66 3.22zm-6.39-2.92c8.69-.48 17.38-.83 26.06-1.49 7.94-.6 15.95-.98 23.75-2.43 34.72-6.47 67.04-19.21 96.84-38.21 12.58-8.02 25.15-16.23 35.7-26.83 9.33-9.37 17.92-19.5 26.52-29.55 19.02-22.24 30.21-48.82 40.85-75.6 2.57-6.48 4.01-13.54 5.03-20.47 2.01-13.59 5.58-26.85 6.79-40.67 1.12-12.72 1.89-25.3.08-37.86-1.63-11.35-3.98-22.62-6.6-33.79-5.04-21.56-12.43-42.18-23.36-61.66-11.91-21.21-25.31-41.2-42.18-58.73-49.92-51.85-111.92-75.92-182.91-79.21-17.75-.82-35.13 2.45-52.36 5.6-30.07 5.5-58.05 16.88-83.84 33.5-15.59 10.05-31.11 20.3-44.45 33.19-13.09 12.64-24.82 26.61-34.43 42.19-5.2 8.43-10.99 16.56-15.45 25.37-15.34 30.28-25.63 62.06-26.96 96.33-.87 22.42-1.53 44.87 3.82 66.85 3.26 13.39 6.73 26.87 11.76 39.65 17.11 43.46 43.41 80.42 80.76 108.9 10.56 8.05 22.07 14.84 33.15 22.2.31.2.65.37.98.51 9.48 4.16 18.86 8.6 28.49 12.4 9.62 3.8 19.33 7.59 29.31 10.22 8.68 2.29 17.29 5.75 26.61 4.98.45-.04.91.17 1.36.24 11.52 1.64 22.79 5.39 34.67 4.36z" />
  <path d="m158.41 305.27c1.39-.51 2.9-.81 4.14-1.57 1.37-.84 2.78-1.9 3.66-3.21 1.34-1.99.54-3.08-1.87-2.95-1.88.1-3.75.2-5.68-.19 1.4-.48 2.8-.96 4.58-1.57-3.03-1.41-10.13-.24-12.41 1.72-.1-.69-.2-1.37-.39-2.7-2.99 2.62-6.43 3.06-9.65 4.05-.32-1.02-.63-1.97-.92-2.9 4.52-1.24 9.41-2.67 14.35-3.86 1.11-.27 2.41.27 3.62.46.17.03.32.28.47.27.53-.01 1.05-.14 1.58-.14 5.15.03 10.62.98 13.64-4.89.42-.81 1.07-1.69 1.02-2.5-.2-3.6 1.61-6.18 3.98-8.52 2.38-2.34 4.08-4.85 4.04-8.48-.02-1.43 1.37-2.92 2.22-4.31 1.81-2.98 3.81-5.86 5.5-8.9 3.81-6.85 6.54-14.34 12.12-20.15.99-1.03 1.48-2.54 2.17-3.84 2.68-5.07 5.36-10.13 8.02-15.21 2.05-3.92 4.11-7.84 6.1-11.79.79-1.57 1.44-3.21 2.15-4.82 2.56-5.86 6.97-8.96 13.43-8.96 6.19 0 12.39 0 18.58.05 15.55.16 31.13 0 46.66.69 7.71.34 15.35 2.24 23.01 3.51 2.85.47 3.76 3.01 5.05 5.13.64 1.06 1.49 2 2.3 2.95.71.84 1.77 1.49 2.2 2.44 2.02 4.54 3.84 9.17 5.82 13.73 1.1 2.54 2.38 5 3.61 7.48 2.8 5.61 5.64 11.21 8.42 16.83.28.57.52 1.26.47 1.87-.4 4.89 2.23 8.35 5.12 11.88 1.53 1.87 2.68 4.24 3.39 6.56 2.84 9.37 7 18.14 12 26.51.5.83 2.07 1.64 2.99 1.5 7.12-1.1 14.22-2.38 21.3-3.73 3.27-.62 6.55-1.32 9.69-2.36 4.34-1.44 8.45-1.25 12.77.16 6.41 2.09 12.94 3.8 19.43 5.65 2.12.6 3.23-.27 3.78-2.42 2.25-8.79 4.57-17.57 6.97-26.32.74-2.7.71-5.22-.2-7.88-.71-2.09-1.08-4.31-1.45-6.49-.11-.63.1-1.67.53-1.94s1.51-.04 1.98.36c2.24 1.9 4.77 3.64 6.47 5.97 3.33 4.56 6.13 9.49 6.66 15.33.03.3.38.57.71 1.04.4-.43.93-.72.93-1.01-.12-7.1 2.22-13.75 3.85-20.51.77-3.17 2.62-5.86 6.17-6.75.27.33.51.48.49.6-1.04 7.65 1.7 14.81 2.87 22.17.95 5.93.91 11.78-1.56 17.46-.77 1.76-.95 3.78-1.4 5.68.26.18.52.37.78.55 1.62-.57 3.2-1.28 4.85-1.7 5.26-1.33 10.5-3.04 15.85-3.62 2.88-.31 6 1.3 8.96 2.19 1.42.43 2.74 1.19 4.87 2.14-1.27.21-1.69.4-2.07.33-3.11-.6-6.21-1.27-9.32-1.89-4.03-.8-7.71.36-11.25 2.14-3.72 1.87-7.42 3.78-11.1 5.75-.83.44-1.52 1.16-2.27 1.75.65.58 1.26 1.58 1.95 1.65 1.06.09 2.93-.18 3.15-.78 1.79-4.85 6.11-4.77 10.37-5.82.35 1.53.44 3 1.05 4.19.37.71 1.56 1.42 2.37 1.4 1.61-.03 3.2-.57 4.86-.91-.12 3.55-.56 4.01-3.68 3.36-2.3-.48-4.53-1.25-6.79-1.9-.14.2-.28.4-.42.6.49.7.93 1.44 1.49 2.08.91 1.05 1.89 2.04 2.87 3.03 2.28 2.29 3.65 6.1 8.34 4.63-2.26 1.47-4.22 2.74-3.66 5.56.26 1.31.54 2.58 2.5 2.08.68-.18 1.54.32 2.32.51-.62.75-1.19 1.56-1.89 2.22-.28.26-.87.18-1.42.27 0 2.36.31 4.7-.07 6.93-.69 4.09-1.67 8.14-2.72 12.16-.71 2.73-.42 3.3 2.46 3.35 1.35.03 2.7 0 4.1.6-1.6.13-3.19.26-4.79.4-2.12.18-3.19 1.31-4.34 3.22-2.3 3.83-5.01 7.53-8.15 10.68-1.05 1.06-3.98.62-5.95.27-1.66-.3-3.13-1.57-4.76-2.2-2.99-1.17-4.33-.41-5.45 2.52-.73 1.89-1.82 3.64-2.67 5.48-1.6 3.48-.8 5.2 2.82 6.23.44.13.9.27 1.36.29 8.82.38 13.15 9.25 11.33 17.87-1.31 6.19-4.16 11.69-7.68 16.83-16.98 24.82-38.51 44.95-63.8 61.07-6.16 3.92-12.85 7.01-19.09 10.8-18.92 11.5-39.88 17.48-61.13 22.49-17.84 4.21-35.99 5.21-54.35 4.73-14.1-.37-28.03-1.57-41.82-4.24-7.48-1.45-14.95-3.2-22.2-5.5-29.3-9.29-56.63-22.61-80.59-42.04-8.14-6.6-15.1-14.66-22.61-22.05-2.38-2.34-5.01-4.45-7.14-6.99-3.37-4.02-6.5-8.25-9.59-12.49-2.66-3.67-5.16-7.46-7.66-11.25-2.94-4.45-5.59-9.1-5.21-14.65.18-2.71.97-5.43 1.85-8.03 1.07-3.18 3.42-4.79 6.89-5.12 4.88-.47 5.91-1.71 5.58-6.64-.18-2.75-.61-5.54-1.41-8.17-.95-3.11-2.91-3.75-5.86-2.44-.42.19-.83.42-1.23.64-5.91 3.14-10.01 2.07-12.98-3.95-1.88-3.79-2.99-7.96-4.57-11.91-1.33-3.32-2.85-6.57-4.46-10.24.09-.09.6-.63 1.51-1.59-1.22-.24-2-.32-2.73-.54-1-.31-2.15-.51-2.91-1.15-1.45-1.21-2.69-.95-3.5.41-1.15 1.92-2.19 1.43-4.27-.18 2.4-.98 4.2-1.98 6.13-2.43 2.14-.49 4.42-.32 6.59-.73.86-.16 2.03-.98 2.25-1.74.64-2.19.92-4.5 1.27-6.77.43-2.79.03-3.16-2.7-2.72-.78.12-1.57.2-2.35.31-.06-.25-.13-.49-.19-.74 1.14-.34 2.27-.7 3.42-1.02 1.51-.42 3.25-.47 4.46-1.31.94-.64 1.67-2.26 1.61-3.4-.03-.65-1.82-1.71-2.83-1.72-2.39-.02-4.03-.79-5.81-2.47-1.29-1.22-3.68-1.36-5.62-1.81-1.09-.26-2.26-.18-3.88-.29 1.9-2.27 3.92-2.48 5.91-2.02 3.15.73 6.24 1.73 9.34 2.67 3.94 1.19 7.89 1.93 12.04 1.07 2.4-.5 3.02-1.41 2.53-4.02-1.26-6.8-2.14-13.67-2.95-20.55-.23-1.98-.09-4.18.55-6.04 2.43-7.01 1.88-14.26 2.2-21.45.05-1.16.75-2.29 1.16-3.44 1.09.72 2.68 1.2 3.17 2.21 1.76 3.65 3.26 7.44 4.63 11.26 1.16 3.22 1.97 6.56 3.01 9.83.28.88.8 1.68 1.52 3.14.45-1.22.81-1.7.77-2.14-.58-6.5 4.33-15.45 10.16-18.34 2.15-1.07 4.34-1.55 6.64-.32 1.63.87 2.03 2 .66 3.26-5.03 4.63-4.65 10.46-3.36 16.26.94 4.23 2.58 8.3 3.99 12.42 1.46 4.27 2.17 8.52 1.3 13.09-.51 2.64-.09 5.45-.09 9.18 6.86-5.97 13.93-6.5 21.36-4.45-2.08 1.68-3.87 2.24-7.56 1.59-3.18-.57-5.73.17-8.23 2.19-1.69 1.37-3.87 2.13-5.81 3.2-2.21 1.23-3.15 2.97-2.15 5.77 1.24-.39 2.34-.74 4.1-1.29-1.2 1.32-1.99 2.18-2.99 3.28 4.36 2.54 8.31.77 11.83-.06 3.41 4.28 7.94 2.88 12.04 3.1-1.58 1.65-6.87 2.79-8.57 1.29-2.54-2.24-5.49-1.86-8.35-2.16-1.74-.18-3.52.06-5.27-.06-1.45-.1-2.89-.45-4.74-.76-1.51 2.21-4.34 2.7-7.26 3.04-4.43.51-6.2 2.46-6.15 6.96.02 1.65.27 3.33.65 4.94 1.2 5.08 2.56 6 7.78 5.5 7.6-.74 10.63 1.02 13.13 8.33 1.49 4.37 2.37 8.94 3.57 13.41.47 1.76.78 3.71 3.24 4.08 1.59-2.15.35-4.21-.09-6.31-.5-2.42-1.15-4.85-1.2-7.29-.03-1.33 1.05-2.68 1.86-4.56 1.36 3.9 2.44 6.98 3.52 10.06.33-.04.67-.08 1-.12 1.1-1.75 2.2-3.51 3.3-5.26.33.15.67.3 1 .45-.28 1.26-.64 2.5-.84 3.78-.37 2.4-.96 4.86 2.56 5.65.77.17 1.22 1.53 1.93 2.22.75.72 1.64 1.29 2.48 1.93.43-1.13 1.26-2.28 1.21-3.4-.11-2.56-.66-5.09-1.16-8.56 1.24 1.22 1.96 1.83 2.57 2.54 1.52 1.76 2.49 3.8 5.04 4.83 2.69 1.08 3.16 8.29 1.14 10.58-.66.74-1.33 1.46-1.78 2.74 2.05-.36 4.61-.1 6.02-1.26 1.4-1.15 1.63-3.71 2.44-5.84 2 1.41 2.09 3.49 2.36 5.57.51 3.83 1 7.61.89 11.53-.06 2.18 1.53 4.46 2.6 6.57.28.54 1.46.96 2.17.88 3.74-.4 7.49-.86 11.17-1.6.76-.15 1.79-1.61 1.78-2.47-.01-6.16-.11-12.34-.57-18.48-.08-1.06-2.02-1.99-3.35-3.21-4.91 5.53-9.21 10.72-8.39 18.37.07.67-.71 1.43-1.1 2.15-.55-.62-1.56-1.24-1.57-1.86 0-1.34.29-2.78.84-4.01 1.69-3.8 3.58-7.52 5.37-11.28 1.7-3.59 1.36-5.62-1.82-7.98-2.67-1.98-5.6-3.6-8.41-5.4-3.4-2.17-6.05-4.99-8.31-9.1 1.31.07 2.11-.13 2.62.17 2.23 1.31 4.81 2.2 6.01 4.85.22.49.92.81 1.45 1.12 1.52.88 3.3 1.45 4.55 2.61 2.84 2.62 6.27 1.65 8.65.44 1.82-.93 2.71-4.25 3.32-6.68.22-.9-1.33-2.65-2.47-3.4-4.43-2.87-9.02-5.49-13.55-8.19-.72-.43-1.48-.79-2.16-1.27-3.13-2.21-4.23-1.95-6.13 1.56-1.97 3.65-3.9 7.32-5.86 10.98-.56 1.05-1.16 2.09-1.74 3.13-.5-.39-.99-.77-1.49-1.16.43-.97.79-1.98 1.31-2.89 1.36-2.37 3.44-4.51 1.76-7.64-.15-.28.86-1.39 1.51-1.88 1.24-.94 2.72-1.58 3.87-2.6.48-.42.69-1.63.43-2.23-.18-.41-1.4-.62-2.1-.52-1.96.29-3.9.8-5.95.76.77-.32 1.54-.64 2.66-1.11-1.29-1.5-2.37-2.75-3.91-4.53 2.12-.1 3.87-.25 5.62-.26 5.99-.05 10.83-3.93 11.68-9.76-1.29 0-2.56.14-3.78-.05-.79-.13-1.49-.74-2.24-1.14.68-.54 1.28-1.29 2.05-1.56 1.39-.49 2.97-.49 4.29-1.08 1.07-.48 1.89-1.52 2.82-2.31-1.11-.34-2.22-.71-3.34-1-.34-.09-.73.04-1.1.08l.02.02zm72.85-88.51c.5-2.71.49-5.3-2.5-6.6-2.28-.99-4.65-1.77-7.02-2.52-.5-.16-1.39.02-1.72.39-1.54 1.7-3.29 3.36-4.29 5.37-.63 1.26-2.49 3.57-.16 4.58 3.17 1.38 6.67 2.15 10.11 2.67 1.06.16 2.36-1.36 3.57-2.07.39-.23.86-.32 1.29-.48-.1 1.13-.65 2.52-.2 3.35.95 1.73 7.44 1.71 8.56.1 1.63-2.35 1.93-4.98.91-7.62-1.03-2.66-3.8-3.07-5.73-.91-1.03 1.16-1.89 2.48-2.82 3.73zm-7.32 15.16c.03 1.52-.97 3.66 1.42 3.94.69.08 1.84-1.88 2.37-3.08.26-.58-.43-1.58-.69-2.39l-3.02 1.42c.46-1.77.67-3.65 1.44-5.28 1.05-2.22.62-3.56-1.67-4.24-3.19-.95-6.38-1.88-9.61-2.67-.55-.13-1.55.27-1.87.75-1.69 2.53-3.41 5.07-4.74 7.79-.53 1.08-.53 2.88.04 3.9.46.83 2.13 1 2.88 1.3-4.81.15-8.36 2.68-10.41 7.59-.92 2.2-2.32 4.2-3.59 6.24-1.23 1.96-2.71 3.77-3.84 5.78-1.95 3.48-.89 5.86 3.03 6.79 1.97.46 4.02.62 6.04.83 5.22.53 9.47-.99 12.32-5.73 2.02-3.36 1.39-5.24-2.42-5.9-2.82-.49-5.69-.69-8.52-1.14-.96-.15-1.85-.68-2.78-1.04.08-.39.17-.78.25-1.17 1.82.16 3.66.21 5.46.5 2.54.41 5.04 1.19 7.59 1.45 1.87.19 2.38-.82 1-2.34 5.29-2.04 5.34-5.93 4.66-9.93 1.53-1.1 3.09-2.23 4.65-3.35zm158.45 63.9c.6-.56 1.19-1.12 1.73-1.62-.37-1.17-.69-2.22-1.04-3.32-3.22-.06-2.5 2.94-4.13 4.91h3.47c-1.59.85-4.1 1.1-2.34 3.99-.84.39-1.63.57-2.13 1.04-.51.48-.76 1.25-1.12 1.89.67.03 1.41.24 2 .04 1.2-.42 2.32-1.07 3.59-1.68.37.76.65 1.34.95 1.98 1.34-.61 2.48-1.12 3.45-1.56-.77 1.3-1.54 2.6-2.31 3.91 1.15-.18 2.29-.36 3.44-.54.46 2.41-.12 3.19-2.44 2.91-1.01-.12-1.98-.49-2.98-.65-2.83-.48-4.11 1.04-3 3.69.82 1.96 2.32 3.73 2.74 5.74.78 3.72 3.4 4.83 6.44 4.89 11.37.26 22.75.33 34.12.32 3.95 0 7.89-.45 11.84-.69 0 .06-.01.11-.02.17-2.45.59-4.9 1.18-7.35 1.77.05.4.09.8.14 1.2 1.03.17 2.06.51 3.09.48 3.27-.09 6.54-.35 9.82-.43.62-.02 1.27.47 1.85.82.09.05-.07.87-.25.93-.65.22-1.69.61-2 .32-1.7-1.62-3.23-.85-5.05-.23-1.41.48-3.16.54-4.61.19-7.08-1.72-14.15-2.56-21.42-1.2-5.81 1.08-11.71 1.66-17.5 2.84-2.8.57-3.25 2.44-2.05 4.83 1.3 2.61 2.38 5.34 3.64 7.97.75 1.57 1.67 3.07 2.53 4.59.89 1.59 2.09 3.07 2.66 4.76 2.34 6.93 4.47 13.92 6.73 20.88.32.99.92 1.88 1.38 2.82.24-.08.48-.16.71-.25-.03-4.03.42-8.13-2.56-11.65-.5-.59-.5-1.61-.73-2.42.88.23 2.12.16 2.58.73 1.61 1.99 3.65 2.17 5.52 2.12 2.8-4.12.91-6.92-2.12-9.41-.14-.12-.25-.27-.36-.42-1.41-1.96-.86-3.61 1.52-4.08 1.99-.39 4.04-.72 6.05-.64 1.11.05 2.67.75 3.13 1.63s.07 2.47-.41 3.53c-.64 1.41-1.89 2.53-2.6 3.91-1.13 2.22-.43 3.82 1.57 4.6.86-.95 1.66-1.85 2.46-2.74.8 1.08 1.85 2.05 2.36 3.25.84 2.02 1.34 4.18 2.13 6.77 2.69-3.43 4.99-7.8 10.08-2.98.05-1.22-.1-2.06-.33-2.87-.69-2.45-1.95-4.87-2.01-7.33-.16-7.49 3.89-13.35 8.35-18.88 2.9-3.59 6.79-5.31 11.44-5.3 2.17 0 4.93.63 6.36-.44 1.5-1.12 1.76-3.93 2.49-6.02 2.15-6.18.99-7.95-5.53-8.2-3.94-.15-7.57-.69-9.7-4.62-.37-.67-1.18-1.17-1.89-1.58-3.04-1.78-6.06-3.64-9.23-5.14-.97-.46-2.44.12-3.68.22.07.67.14 1.35.23 2.19-3.43.7-7.14 1.45-10.84 2.21.04.27.09.54.13.81h4.8v.4c-2.62.26-5.23.51-8.19.8.52-.79.76-1.15 1-1.51-2.04-1.05-.77-2.95-1.2-4.33-.64-2.02 0-2.99 1.57-3.38 3.72-.93 7.51-1.6 11.55-2.43-.17 1.24-.25 1.77-.38 2.73 3.25-.43 6.16-.82 9.07-1.21 0-.29 0-.57 0-.86-.46-.35-.92-.7-1.13-.86.43-.94.78-1.72 1.13-2.49-.89-.33-1.77-.85-2.68-.93-1.15-.09-2.33.18-3.5.29l-.07-.65c1.6-.35 3.2-.7 4.79-1.04l-.25-1.51c-3.75.32-7.51.65-11.46.99 1.1-.67 1.99-1.22 3.55-2.17-3.89-1.13-7.07-1.87-10.1-2.99-3.68-1.36-5.96-1.02-8.56 1.67.65 1.14 1.25 2.21 1.99 3.51 2.01-.72 4.13-1.48 6.25-2.23.11.3.22.6.34.9-2.12.98-4.25 1.95-6.37 2.93l.41.84c.76-.24 1.51-.51 2.28-.7.78-.19 1.58-.29 2.37-.42.09.33.18.65.27.98-1.32.44-2.62.92-3.96 1.3-3.31.96-3.55 1.42-2.53 4.66.22.72.16 1.55.07 2.31-.01.1-1.39.23-1.44.1-.26-.71-.38-1.5-.39-2.27-.05-1.89-.02-3.79-.02-5.68-.52-.05-1.04-.11-1.56-.16-.43 1.95-.83 3.92-1.31 5.86-.2.8-.39 2.09-.89 2.26-2.55.88-5.15 1-7.97-.44 2.14-3.17 4.09-6.06 6.44-9.54-5.48 1.49-10.97 7.21-11.04 11.13-.79-.16-1.52-.3-2.26-.45.24-.74.35-1.56.74-2.21.57-.96 1.33-1.81 2.01-2.7-.14-.14-.28-.28-.42-.43-.75.24-1.5.48-2.24.72-.08-.3-.15-.6-.23-.9 1.55-.47 3.09-.93 4.39-1.33 2.58-2.79 5.19-5.6 7.79-8.41-2.66-1.36-6.18-.61-6.95 1.46q-1.12 3-3.77 4.07c.64-.79 1.27-1.59 1.91-2.38-.17-.21-.34-.42-.51-.63-2.2 1.23-4.4 2.46-6.6 3.68.63-1.26 1.75-1.86 2.38-2.8.37-.54-.06-1.61-.12-2.44-.63.1-1.75.08-1.8.31-.8 3.45-3.78 3.02-6.19 3.6zm-4.91 111.09c-1.04-.9-2.03-2.47-3.12-2.55-2.38-.17-4.54.9-6.03 2.84.07.29.14.57.2.86 2.93-.33 5.87-.65 8.8-.98.16 2.8 1.32 3.9 3.97 3.49 1.15-.18 2.38-.61 3.33-1.28 3.37-2.4 6.57-2.57 9.91.08 1.16.92 2.85 1.72 3.79-.12.41-.8-.32-2.18-.65-3.92 1.03.33 3.16.49 3.33 1.17.45 1.72.43 3.83-.22 5.45-.32.8-2.57 1.43-3.75 1.18-4.97-1.05-9.89-2.02-14.99-.94-2.45.52-4.78.44-6.43-2.02-.36-.53-1.39-.89-2.09-.87-2.68.07-5.35.36-8.03.47-.88.04-1.76-.24-3.26-.47 1.61-.82 2.48-1.26 3.36-1.7-.06-.24-.13-.47-.19-.71h-8.23c-.98-1.29-1.59-2.1-2.21-2.91-.64.78-1.22 1.61-1.92 2.31-.62.61-1.33 1.48-2.08 1.55-3.6.36-7.22.53-10.84.69-.51.02-1.03-.41-2.23-.93 3.98-1.64 7.29-3.01 10.58-4.37-.45-3.98-.72-4.25-4.57-4.05-2.2.11-4.4.34-6.6.52-.02-.29-.04-.59-.06-.88 3.94-.36 7.88-.73 11.82-1.07 4.7-.4 9.42-.62 14.08-1.23 1.76-.23 3.39-1.35 5.09-2.06-.09-.33-.19-.67-.28-1-5.57-1.5-11.17.52-16.75.95-.02-.31-.04-.62-.06-.93 4.68-.92 9.35-1.83 14.03-2.75-.09-.4-.19-.8-.28-1.2-7.56 1.16-15.93-1.06-21.96 5.61-1.27-.91-2.52-1.48-3.77-1.47-1.86.02-3.14.95-2.57 3.04-13.07.74-25.9 1.46-39.54 2.24 5.64-2 11.18-.56 16.55-3.35-6.55-2.58-12.67 1.49-19.12-.6 1.79-.71 2.94-1.16 4.1-1.62-2.7-1.49-4.93-.72-7.14.52-1.35.76-2.8 1.82-4.23 1.88-5.65.23-11.28.27-16.69 2.32-.82.31-1.87.04-2.81.04 0-.3-.02-.61-.02-.91.86-.2 1.7-.45 2.57-.59 3.54-.56 7.11-.99 10.63-1.67 1.68-.32 3.43-.95 3.38-4.14-2 .61-3.72 1.03-5.36 1.66-1.54.6-2.96 1.98-4.48 2.06-5.13.26-10.28.1-15.42.1 4.11-1.92 8.82-.2 13.48-2.93-1.54-.59-2.45-1.27-3.31-1.21-4.95.32-9.9.65-14.81 1.31-6.16.83-12.28 1.9-18.44.04-.47-.14-1.21-.1-1.57.18-2.86 2.26-6.02 1.59-9.04.79-4.05-1.07-7.92-2.89-12.29-1.94-.36.08-.99-.47-1.3-.87-1.36-1.71-2.26-1.1-3.08.49-.27.52-.67.98-1.01 1.46-.75-.97-1.36-1.76-1.97-2.55-.65.75-1.2 1.64-1.98 2.2-.51.37-1.46.55-2.03.33-.86-.33-1.56-1.08-2.33-1.65-.53.93-1.06 1.85-1.77 3.09-.98-.5-2.15-1.11-3.3-1.7-2.96 3.95-8.25 1.69-11.74 4.65 1.74.6 3.57 1.15 2.45 3.41-1.14 2.29-2.62.68-3.88.66-1.53.33-3.05.65-4.58.98v-4.68c-5.84-1.71-10.66-1.65-13.2.83 3.49.39 6.42.71 9.74 1.08-.22.98-.44 1.98-.66 2.97-.77-.53-1.53-1.07-2.31-1.57-.29-.19-.64-.39-.97-.41-3.51-.22-7.02-.62-10.52-.49-1.34.05-3.02 1.03-3.88 2.11-1.41 1.77-2.87 2.35-5.03 2.03-1.24-.18-2.56.15-4.58.32 3.28 4.72 5.88 9.01 10.74 10.75 2.4.86 5.57 1.48 7.74.6 3.01-1.21 5.6-3.15 9.73-.98-.54-2.19-.87-3.28-1.07-4.4-.1-.58-.16-1.59.09-1.71.57-.27 1.46-.34 2.02-.07.8.39 1.32 1.35 2.12 1.72 1.13.53 2.53 1.23 3.57.95.91-.24 1.5-1.73 2.56-3.1.48.95 1.16 1.71 1.22 2.52.18 2.58 2.11 3.74 3.99 4.5.61.24 1.94-1.59 3.07-2.27.79-.47 1.79-.59 2.7-.87.21.78.44 1.56.63 2.35.22.91.11 2.22.68 2.65 1.39 1.06 3.09 1.72 4.77 2.6-2 1.42-4.25.89-6.45.35-1.7-.42-3.31-1.4-5.01-1.53-4.69-.35-9.41-.69-14.1-.46-3.83.19-7.61 1.19-11.41 1.84-.06.34-.13.67-.19 1.01 4.47 3.23 8.84 6.62 13.47 9.6 1.6 1.03 3.86 1.15 5.85 1.4.71.09 1.83-.51 2.24-1.14 1.29-2 2.26-4.21 3.54-6.23.33-.53 1.3-.84 2-.88.74-.04 1.55.26 2.24.61.74.38 1.69.84 1.98 1.51 1.18 2.76 1.05 2.74 3.41.65.61-.53 1.73-1 2.39-.79.52.17.74 1.41.99 2.21.13.4.02.87.02 1.31 1.22.4 2.06.99 2.48 1.8 2.31 4.37 7.97 6.44 12.49 4.44.57-.25 1-.78 1.52-1.14 1.11-.78 2.25-1.52 3.36-2.3.48-.34.92-.73 1.38-1.09-.43-.52-.77-1.18-1.31-1.52-.67-.43-1.52-.59-2.28-.87.05-.25.11-.49.16-.74 2.07 0 4.14.05 6.21-.01 2.73-.09 3.06-.71 1.95-3.14-.56-1.23-.92-2.54-1.38-3.81l.72-.3c1.57 1.39 3.09 2.83 4.72 4.14.67.54 1.65 1.19 2.33 1.05.54-.11.89-1.34 1.21-2.13.34-.85.55-1.75 1.01-3.24 1.5 1.95 2.53 3.34 3.61 4.7 1.38 1.74 2.93 1.81 4.5.29.86-.84 1.58-1.81 2.42-2.67 1.29-1.32 2.47-2.84 4-3.77.86-.52 2.33-.03 3.53 0-.31.97-.48 2.03-.98 2.9-.87 1.5-2.15 2.79-2.86 4.35-.55 1.22-.31 2.97 1.51 2.78 2.61-.27 5.22-.93 7.74-1.73 1.92-.61 3.63-1.87 5.55-2.49.9-.29 2.06.24 3.62.47-2.68 1.67-5.09 2.45-6.3 4.11-1.32 1.82-1.54 4.44-2.25 6.76 3.63 1.8 3.76-.84 4.07-2.34 4.5.41 8.75.79 13 1.18-.72.5-1.53.69-2.35.82-3.92.62-7.85 1.25-11.78 1.82-3.75.54-7.5 1.21-11.27 1.46-2.36.15-4.64.18-7.08-1.27-1.94-1.15-5.04-.34-7.63-.36-1.73-.01-3.21.28-4.12 2.14-.72 1.47-2.37 2.31-3.68 1.05-1.42-1.37-2.74-1.54-4.48-1.19-.71.14-1.5-.15-2.25-.25-.02-.18-.03-.36-.05-.54 1.14-.58 2.27-1.15 3.41-1.73-.07-.35-.14-.7-.2-1.05-7.7.72-15.38 2.53-22.86.8-.3-1.13-.63-2.4-1.38-2.76-3.69-1.74-7.51-1.22-11.25-.06-1.39.43-2.7 1.13-4.44 1.87.91.77 1.21 1.16 1.6 1.33 13.71 6.1 27.42 12.21 42.02 15.98.77.2 1.64-.01 2.44.08.92.11 1.82.46 2.74.49.79.02 2.21-.1 2.3-.44.86-3.23 3.12-4.11 6.5-4.2-.28 1.25-.43 2.3-.76 3.3-.81 2.4-.11 4.27 2.37 4.67 6.64 1.07 13.31 2.16 20.01 2.65 5.4.39 10.86-.07 16.29-.18.41 0 .82-.24 1.23-.36-.2-.15-.4-.3-.6-.45.64-1.27 1.02-3.37 1.96-3.66 2.24-.68 4.74-.51 7-.68.41-3.23.78-6.16 1.23-9.65 1.15 1.26 1.74 1.91 1.99 2.18 1.59-.12 3.46-.63 3.71-.2.62 1.05.68 2.55.6 3.85-.08 1.21-.64 2.39-.98 3.58.18.16.36.32.53.47 1.38-.83 2.85-1.56 4.14-2.51 2.23-1.65 4.16-3.82 6.57-5.09 2.7-1.43 5.73-2.46 8.74-3.02 3.51-.65 7.15-.67 10.74-.85 1.82-.09 3.66.03 5.49.11 1.7.07 3.41.36 5.1.3 2.07-.08 4.13-.42 6.2-.64l.15 1.06c-1.7.45-3.4.91-5.1 1.36.06.25.12.5.19.75 3.93-.42 7.86-.81 11.77-1.32.48-.06 1.24-.74 1.25-1.16.06-1.8 1.25-1.8 2.5-1.85 5.67-.21 10.91-1.71 15.72-4.83 4.04-2.62 8.43-4.73 12.29-7.58 8.63-6.37 17.05-13.02 25.48-19.65.81-.64 1.74-2.1 1.52-2.89-.66-2.42.61-2.7 2.39-2.94 2.57-.35 4.01-2.08 5.66-4.66-3.16 0-5.66-.27-8.08.08-2.17.31-4.61-2.29-6.54.59-.32-1.03-.64-2.03-.93-2.96 1.17-.63 2.15-1.16 3.13-1.68-1.98-.59-3.79-.82-5.52-.54-4.91.77-9.79 1.7-14.66 2.71-.63.13-1.53 1.12-1.49 1.66.03.6.93 1.52 1.57 1.63 1.41.24 2.9.16 4.34.03 1.09-.1 2.15-.59 3.25-.67 1.33-.1 2.21.49 1.7 2.02-.61 1.85-4.13 3.64-6.34 3.24.22-.76.43-1.53.65-2.29-.17-.2-.35-.4-.52-.6-.76.56-1.97.99-2.19 1.72-.69 2.33-2.39 2.82-4.41 3.1-1.46.21-2.9.57-4.35.86zm-272.3-27.22c-.65.09-1.23.02-1.68.24-6.07 2.97-12.16 5.92-18.14 9.07-.66.35-1.21 2.14-.9 2.9 1.19 2.89 2.35 5.95 4.25 8.38 6.66 8.52 13.51 16.91 20.53 25.13 2.87 3.36 6.34 6.23 9.62 9.23 18.47 16.85 38.67 31.16 61.71 41.09 10.52 4.53 21.33 8.39 32.02 12.54.6.23 1.25.33 1.88.48 5.05 1.18 10.13 2.21 15.14 3.56 4.21 1.14 8.31 2.52 12.79 1.62 1.04-.21 2.23.06 3.29.32 11.77 2.87 23.83 3.37 35.8 3.23 10.41-.11 20.86-1.58 31.2-3.05 31.28-4.45 60.72-14.3 87.55-31.22 8.9-5.62 17.75-11.48 25.84-18.18 6.4-5.29 12.17-11.33 19.12-16.03 4.48-3.03 8.59-6.72 10.63-11.85 1.61-4.05 4.32-7.05 7.3-9.98 1.59-1.56 3.28-3.01 4.81-4.62 4.05-4.26 5.49-10.72 3.46-15.05-.06-.12.03-.31.05-.47.36.03.73.1 1.09.08.15 0 .3-.17.44-.27-1.25-2.73-5.02-5.32-8.34-5.34 1.12.87 1.92 1.42 2.64 2.07.67.61 1.23 1.32 1.84 1.99-.14.2-.27.4-.41.6-1.14-.25-2.27-.5-3.59-.8 2.32 4.33 1.91 5.42-2.68 6.01-2.9.38-5.89.11-8.85.08-1.43-.02-2.86-.16-4.29-.25-.14.34-.28.67-.42 1.01 3.49 2.12 6.99 4.24 11.04 6.7-.88 1.12-2.14 2.72-3.69 4.69-.72-1.85-.84-3.15-1.55-3.78-3.7-3.29-6.87-7.36-12.04-8.66-.54-.14-1.29-1.4-1.15-1.92.62-2.29 5.1-4.74 7.51-4.56 2.2.16 4.42.03 6.64.03.07-.25.15-.5.22-.75-1.1-.77-2.12-1.74-3.33-2.24-1.29-.53-2.76-.61-3.79-.81.39-2.01 1.55-4.24.88-5.43-.86-1.52-3.11-2.44-4.95-3.12-.8-.3-2.45.34-3.05 1.09-2.39 2.98-4.63 6.09-6.74 9.28-9.7 14.68-21.62 27.27-35.57 37.94-23.29 17.81-49.6 29-78.03 35.58-13.39 3.1-26.83 5.67-40.63 5.53-14.2-.15-28.28-1.66-42.25-4.14-6.17-1.09-12.65-1.32-17.96-5.22-5.94-4.36-12.67-6.24-19.82-7.4-3.01-.49-5.91-1.94-8.71-3.25-2.24-1.05-4.2-2.7-6.42-3.82-14.34-7.22-27.52-16.3-39.12-27.23-9.53-8.98-17.67-19.45-26.33-29.35-3.04-3.48-3.77-3.76-7.87-1.45-3.06 1.72-3.17 2.2-1.19 5.01.33.47.49 1.06.77 1.68-4.29.26-5.98 1.77-6.83 6.21 1.19-.36 2.21-.63 3.21-1 1.39-.51 2.71-1.31 4.14-1.58.95-.18 2.44.03 2.93.65.51.65.44 2.17.03 3.03-.58 1.21-1.77 2.1-2.57 3.23-.73 1.02-1.28 2.17-1.9 3.26.27.22.54.44.82.66 2.63-1.07 5.79-1.36 6.64-5.98 1.77 1.87 3.07 3.24 4.12 4.35-3.26 1.36-5.96 2.32-8.5 3.6-1.97.99-3.69 2.49-5.62 3.57-2.03 1.13-4.57 2.49-6.4.5-1.83-1.98.53-3.85 1.53-5.61.92-1.61 1.95-3.16 2.93-4.73-.24-.28-.47-.56-.71-.85-1.86.84-3.66 1.93-5.62 2.45-1.35.36-2.9-.06-4.36-.14.2-1.47-.01-3.19.68-4.37 1.06-1.8 2.91-3.11 4.11-4.85.98-1.43 1.5-3.19 2.22-4.8.83-1.37 3.22-1.69 2.62-4.56zm-19.64-129.64c-.27.06-.55.12-.82.18-.82 3.56-1.66 7.11-2.44 10.67-1.64 7.39-2.38 14.77-.32 22.24 1.69 6.12 3.47 12.23 4.66 18.46.52 2.73 1.49 3.6 4.16 3.42v-2.81c1.34.13 2.5.31 3.66.34 2.31.04 4.78.81 6.4-1.96.38-.64 2.04-.54 3.1-.77l.27.63c-.41.6-.82 1.21-1.26 1.85 6.07 2.41 10.04-.32 9.79-6.52-.03-.83-.11-1.67-.26-2.48-1.28-6.85-1.13-13.89-3.81-20.59-2.67-6.69-3.31-13.84-1.11-20.97.12-.41.08-.86.16-1.99-1.69.75-3.37.99-4.17 1.95-2.03 2.43-4.23 4.96-5.36 7.85-2.15 5.52-1.96 11.43-1.41 17.28.16 1.7.25 3.4.39 5.33-3.24-.34-4.7-2.3-5.12-4.51-.79-4.14-.83-8.42-1.53-12.59-.66-3.97-1.65-7.9-2.74-11.78-.33-1.19-1.48-2.15-2.25-3.22zm384.37-.69c-.65 2.49-1.14 4.15-1.51 5.84-1.77 8.04-3.46 16.09-5.3 24.11-.21.91-1.14 1.66-1.74 2.49-.49-.92-1.27-1.8-1.4-2.77-.58-4.08-.63-8.25-1.51-12.25-.82-3.74-2.34-7.35-3.78-10.92-.29-.72-1.61-1.02-2.46-1.51-.34.87-.97 1.73-.97 2.6.03 6.58-1.82 12.76-3.6 19.01-1.62 5.67-2.82 11.46-3.97 17.25-.5 2.49-.66 5.2 2.56 6.24-.52 1.03-.94 1.86-1.45 2.88 1.26.32 2.1.54 3.06.79-2.21 1.94-2.25 4.29.3 5.36 1.69.71 4.04.01 6.06-.29 1.79-.27 2.78-1.26 1.16-3.43 4.39-.97 8.39-1.85 12.38-2.74-.22-.27-.43-.53-.65-.8.51-1.01 1.06-1.99 1.51-3.03.36-.82.93-1.75.81-2.55-.63-4.32.2-8.26 2.59-11.9.34-.52.51-1.22.54-1.85.41-7.46 1.01-14.91 1.07-22.37.03-3.31-.76-6.73-3.72-10.15zm-287.33 72.04.75.18c.46-.72.98-1.41 1.38-2.16 2.12-4.01 4.34-7.97 6.26-12.08 1.99-4.27 3.69-8.67 5.48-13.03.82-2 .13-3.18-2.01-3.55-4.65-.8-9.28-1.77-13.95-2.41-4.42-.61-7.05.99-8.76 5.1-.88 2.13-1.01 4.75-2.33 6.49-4.5 5.93-7.22 12.78-10.72 19.23-.75 1.38-1.68 2.66-2.49 4-.83 1.38-.76 2.54.71 3.57 2.5 1.76 4.87 3.7 7.36 5.46 3.48 2.46 7.93.38 11.59 2.32.46.24 1.58-.45 2.23-.92 3.15-2.28 4.51-5.63 5.76-9.53-5.17-2.23-10.1-4.3-14.98-6.48-1.42-.63-2.7-1.57-4.05-2.36.22-.35.43-.69.65-1.04.74.43 1.44 1.07 2.24 1.25 2.99.66 5.75 4.3 9.13.8.19-.19.87-.24 1.04-.07 1.66 1.66 5.21 1.5 4.72 5.21zm-66.1 33.6c.75-1.43 2.2-2.9 1.92-3.87-1.16-3.94-2.54-7.9-4.44-11.53-1.44-2.75-4.44-4.26-7.55-3.81-5.66.81-11.26 2.07-16.86 3.29-2.22.48-2.68 1.82-1.45 3.91 4.6 7.82 6.78 16.17 5.4 25.3-.1.67.45 1.84 1.04 2.16 2.49 1.33 8.65-.55 10.88-3.7-3.51.86-6.4 1.56-9.3 2.27-.06-.29-.11-.58-.17-.87 4.24-1.37 8.59-2.49 12.7-4.18 4.16-1.71 7.83-4.3 10.79-8.19-1.25-.33-2.08-.54-2.96-.77zm-36.28-41.39c.13-.28.25-.56.38-.84-1.05-.48-2.06-1.22-3.16-1.38-1.53-.23-3.13-.05-4.7-.03-3.56.06-5.67 1.55-6.22 5.02-1.76 11.06.34 21.35 6.83 30.56.62.88 2.08 1.17 3.15 1.73.44-1.01 1.15-1.98 1.27-3.03.51-4.2 1.74-5.87 5.88-7.02 2.49-.69 5.06-1.09 7.57-1.7 4.8-1.17 5.26-2.15 4.25-7.05-.63-3.04-1.11-6.17-1.06-9.26.03-1.95-.48-3.11-2.12-3.63-1.47-.47-3.06-.73-4.61-.76-3.79-.08-7.58.1-11.37.01-1.39-.03-2.76-.5-4.15-.77.02-.34.03-.68.05-1.01 2.67-.28 5.34-.55 8-.83zm130.87 62.17c.82-11.51-4.55-17.31-14.74-15.49-4.11.73-8.05 1.67-12.31 1.05-3.09-.45-4.84 1.66-4.61 4.79.09 1.19.57 2.35.66 3.54.21 2.72.33 5.45.4 8.17.04 1.56-.45 3.23-.03 4.64.33 1.12 1.57 2.18 2.67 2.76.47.24 1.76-.7 2.44-1.35 1.6-1.56 6.63-1.84 7.63-.03 1.72 3.09 4.25 2.9 6.94 2.2 2.05-.53 3.99-1.46 6.02-2.1 1.38-.44 3.42-.23 4.1-1.12.81-1.07.5-3 .65-4.56.08-.83.12-1.66.19-2.49zm267.5-24.34c1.63-.68 2.94-1.06 4.08-1.72 3.39-1.96 5.37-5.16 6.48-8.72 1.78-5.68 3.15-11.49 4.71-17.24 1.48-5.47.33-7.13-5.28-7.59-5.06-.42-10.14-.68-15.18-1.32-5.34-.68-7.29.77-7.87 6.21-.25 2.29-.66 4.58-1.22 6.82-1.57 6.17-1.62 6.16 4.48 8.3 7.61 2.67 9.44 5.19 9.61 13.19 0 .45.08.9.19 2.09zm-282.72-1.31c-.42-.95-.72-1.59-1-2.23-2.39-5.5-11.19-8.1-15.54-4.23-3.63 3.23-5.32 7.74-5.8 12.57-.14 1.44.52 2.31 2.33 2.28 4.24-.08 8.48.25 12.72.12 1.59-.05 3.14-1.01 4.74-1.37.97-.22 2.06-.27 3.02-.05 1.84.42 3.6 1.48 5.42 1.56 5.06.22 10.14.08 14.53.08 3.03-2.92 4.36-5.87 4.16-9.44-.02-.38.55-.94.98-1.16 2.04-1.07 2.45-3.14.52-4.46-1.28-.88-3.06-1.42-4.61-1.43-4.33-.01-8.68.61-13 .47-6.76-.23-6.77-.4-7.88 6.39-.03.16-.19.3-.59.91zm158.22 32.91c.13.3.22 1.12.62 1.32.42.21 1.46.03 1.67-.31 1.25-2.07 2.75-1.22 4.32-.59 1.19.48 2.41 1.02 3.67 1.2 1.72.25 3.12-.1 3.97-2.11.41-.97 2.12-2.1 3.09-1.97 3.01.4 6.35-1.25 9.06 1.26.16.15.54.18.78.13 3.02-.71 6.79-3.51 6.39-7.11-.29-2.67-.23-5.73.84-8.09.88-1.94.5-2.81-.82-3.56-1.49-.85-3.19-1.64-4.86-1.82-7.58-.81-14.93.41-22 3.16-1 .39-2.17 1.4-2.45 2.35-1.53 5.23-2.81 10.53-4.27 16.15zm89.64-24.66c-.39-2.66 1.15-2.63 2.68-2.17 3.9 1.16 7.77 2.42 11.63 3.69 1.22.4 2.08.73 2.91-.85 2.82-5.38 5.77-10.71 8.86-15.94 1.07-1.81 1.05-2.74-1.01-3.53-2.93-1.13-5.79-2.45-8.69-3.66-8.01-3.35-15.75-.78-19.96 6.81-1.15 2.07-1.8 4.44-2.56 6.71-.6 1.79-.72 3.47 1.69 4.18.39.11.58.92.89 1.46-.53.26-.78.36-1.02.49-.63.34-1.25.68-1.88 1.02.61.45 1.16 1.14 1.84 1.3 1.34.31 2.74.32 4.63.5zm-246.24-43.93h1.29c.21 1.82.48 3.63.63 5.46.34 3.97 1.87 5.44 5.84 5.45.92 0 1.84-.19 2.75-.28 3.39-.35 6.83-1.27 10.15-.93 7.41.77 8.61-.06 8.22-7.5-.05-.91-.05-2.06-.58-2.65-1.05-1.16-2.65-3.02-3.66-2.81-5.21 1.08-9.85-3.55-15.16-1.17-1.82.82-4.12.49-6.06 1.13-1.55.51-2.68 1.01-4.33-.05-1.11-.71-3.85-1.02-4.19-.47-2.01 3.24-3.62 6.75-5.15 10.26-.26.59.38 2.29.77 2.35 2.41.36 4.98.87 7.24.3.9-.23 1.25-3.05 1.66-4.74.34-1.41.4-2.89.58-4.34zm56.12 40.98c2.4-.45 2.71-1.97 2.75-3.57.02-1-.31-2.01-.32-3.02-.05-3.14-2.76-6.47-5.77-6.45-6.74.04-13.48.28-20.21.57-.87.04-2.1.68-2.48 1.4-2.06 3.91-2.86 8.03-.83 12.22 1.79 3.7 8.08 5.61 10.7 2.87 2.29-2.41 4.75-2.43 7.52-2.41 1.19 0 2.4-.07 3.58-.29 2.21-.41 3.39-1.69 3.25-4.07-.04-.76.24-1.54.38-2.31.28.02.57.04.85.06.19 1.57.38 3.13.6 4.99zm120.65-4.67c.12-3.63-1.54-6.02-4.17-6.99-3.13-1.15-6.63-1.98-9.91-1.82-3.58.17-7.07.51-10.69.16-5.24-.51-7.21 2.03-6.53 7.29.24 1.89-.13 3.85.05 5.75.1 1.06.46 2.45 1.2 2.98.79.57 2.22.51 3.31.34 1.84-.3 3.61-1.2 5.44-1.31 3.78-.22 7.6.1 11.38-.14 5.02-.32 6.33-1.89 6.49-6.92.01-.33.2-.66.4-1.29.98.63 1.77 1.14 3.02 1.95zm-178.06-25.5c-2.69.59-6.03.99-9.12 2.09-4.32 1.54-6.57 4.97-6.85 9.56-.16 2.71 1.14 3.61 3.8 3.67 6.04.13 12.07.52 18.11.84 1.29.07 2.62.54 3.85.33 1.27-.22 2.87-.71 3.57-1.65 3.41-4.56.96-11.83-4.49-13.37-2.64-.75-5.45-.92-8.86-1.46zm131.62 34.76.02-.29c1.11 0 2.24-.13 3.32.02 3.61.52 5.87-1.78 8.11-3.93.54-.52.71-2.19.29-2.82-1-1.49-.88-2.59.05-4.02 1.71-2.59.97-4.59-1.96-5.48-6.38-1.93-12.92-2.19-19.47-1.36-1.17.15-2.88 1.42-3.14 2.47-.74 2.98-1.22 6.13-1.12 9.18.1 3.11 2.26 5 5.37 5.42 2.83.38 5.69.53 8.53.79zm-34.94-2.25c-.13-.42-.27-.84-.4-1.26h7.61c.37 0 .74-.03 1.1.01 6.16.76 7.77-.59 8.12-6.78 0-.13.22-.25.32-.36.58.38 1.17.75 1.78 1.14 1.22-2.96.05-6.05-2.68-7.25-6.77-2.99-13.63-2.63-20.46-.31-.8.27-1.7 1.24-1.92 2.05-.53 2-1.07 4.13-.91 6.15.18 2.37.75 4.86 1.85 6.94.51.97 2.62 1.26 4.06 1.48.41.06 1.02-1.18 1.54-1.82zm-29.5-94.45s0-.05 0-.08c6.42-.63 12.84-1.26 19.26-1.92.51-.05 1.4-.35 1.41-.59.17-2.51.54-5.08.16-7.52-.32-2.1-2.36-2.56-4.36-2.6-7.22-.15-14.45-.3-21.67-.56-2.22-.08-3.44.82-4.09 2.87-2.1 6.63.74 10.57 7.63 10.5.55 0 1.11-.06 1.66-.1zm7.35 93.87c1.47-.07 3.07.2 4.39-.28 1.73-.63 3.56-1.57 4.76-2.91 1.51-1.68 2.46-3.87 3.58-5.89 1.37-2.48.85-4.49-1.94-5.19-2.97-.75-6.15-.9-9.24-.88-3.12.01-6.23.64-9.36.82-3.11.18-4.85 1.59-5.01 4.68-.15 2.83-.15 5.68-.06 8.52.07 2.24 5.05 4.83 6.2 3.18 1.86-2.69 4.3-1.94 6.68-2.04zm-42.04-15.73c.05-.27.1-.53.15-.8 1.57-.09 3.14-.13 4.71-.29 5.05-.51 5.05-.53 5.75-5.41.04-.27.12-.54.19-.81.73-3.15-.24-5.52-3.15-6.81-1.48-.66-3.2-1.15-4.8-1.11-4.42.1-8.86.36-13.25.86-5.09.58-5.07.73-5.66 5.88-.03.27-.04.57-.14.82-1.12 2.65.28 4.3 2.52 4.88 4.51 1.15 9.13 1.89 13.7 2.79zm10.94-30.43s0-.08 0-.11c-1.75.19-3.51.29-5.24.57-5.19.85-5.19.87-6.2 5.74-.02.09-.05.18-.07.27-.81 3.88 3.27 8.31 7.04 7.14 4.21-1.31 8.23-.67 12.34-.13 6.95.91 9.69-1.6 9.38-8.64-.09-2.18-2.53-4.81-4.57-4.83-4.23-.04-8.46-.01-12.68-.01zm7.99-32.56.02.68c-5.9 0-11.81-.03-17.71.03-.97.01-2.11.21-2.86.76-1.63 1.18-.87 10.27.83 11.46 2.1 1.47 11.16 1.15 13.49.21 3.07-1.23 6.34-2.48 9.8-.6.69.37 2.66-.15 2.95-.77 1.41-3.01.99-6.11-.44-9.07-1.25-2.6-3.47-3.1-6.09-2.71zm33.02 13.25c2.96 1.08 3.45.76 3.47-2.04 0-.83-.05-1.69.15-2.48 1.84-7.28.04-6.85-5.88-8.15-.27-.06-.55-.1-.82-.11-4.68-.13-9.35-.36-14.03-.34-1.65 0-3.9.06-4.84 1.07-2.89 3.09-2.07 7.08-1.42 10.81.5 2.87 3.12 1.55 4.78 2.14.43.15.91.4 1.33.35 2.96-.39 6.63.1 8.69-1.49 3.14-2.42 6.18-1.84 9.85-2.39-.61 1.25-.94 1.93-1.27 2.62zm32.14 87.56c2.93-1.26 4.12-.61 3.86 3.09-.15 2.24.91 3 2.86 3.14 3.44.23 5.8-1.56 7.65-4.18 2-2.82 2.8-5.88.99-9.1-1.85-3.29-3.71-6.6-5.87-9.69-.5-.72-2.23-.77-3.38-.74-.3.01-.7 1.5-.8 2.34-.27 2.27-.15 4.61-.7 6.8-.27 1.09-1.66 1.9-2.55 2.84-.74-1.06-1.71-2.02-2.17-3.19-.54-1.35-.4-2.98-1-4.28-.38-.83-1.54-1.7-2.41-1.78-.7-.06-1.8.88-2.22 1.66-2.19 4.05-.66 14.75 2.59 17.82.45.42 2.36.22 2.47-.1.44-1.23.43-2.61.67-4.64zm-61.15-53.07-.02-.63c-2.21.22-4.42.4-6.62.67-2.43.3-3.67 1.73-3.38 4.18.26 2.2.99 4.37 1.02 6.56.04 2.97 1.64 3.78 4.09 3.43 1.59-.23 3.11-.97 4.67-1.47.85-.27 1.68-.67 2.55-.78 3.93-.5 7.87-.91 11.8-1.37 1.99-.23 2.76-1.32 2.89-3.35.07-1.05 1.03-2.08 1.7-3.04.47-.68 1.65-1.32 1.57-1.82-.12-.7-1.02-1.45-1.77-1.8-.89-.41-1.97-.56-2.97-.57-5.18-.05-10.36-.02-15.53-.02zm94.75-31.07c0-.14-.02-.27-.02-.41-4.03.22-8.11.17-12.09.75-3.61.53-5.35 3.17-5.2 6.73.15 3.49 1.94 5.64 5.57 6.1 1.97.25 4.02-.04 6.03-.22 3.11-.27 6.21-.85 9.32-.93 6.62-.17 9.05-3.45 7.06-9.74-.53-1.67-1.4-2.4-3.2-2.31-2.49.13-4.98.03-7.47.03zm-37.1-1.2c-8.36-.07-10.43 2.66-8.5 9.54.05.18.11.35.17.53 1.17 3.56 2.2 3.9 5.93 3.71 4.96-.24 9.97-.18 14.92.2 3.65.28 5.75-.4 6.45-3.07 1.08-4.11-.25-7.35-3.87-8.17-5.39-1.21-10.87-1.99-15.1-2.74zm31.04-29.98c-2.66.64-5.46.95-7.94 2.01-3.2 1.38-4.13 4.45-3.01 7.98.71 2.24 3.44 3.32 6.59 3.19 3.74-.16 7.5.09 11.25.19 2.29.06 4.62.48 6.87.21 2.63-.32 3.7-2.42 4.17-4.89.45-2.34-1.01-3.39-2.67-4.32-4.7-2.64-9.78-3.8-15.26-4.37zm-74.14-28.18c.02.21.03.42.05.62 4.57-.51 9.17-.86 13.71-1.61 2.39-.39 3.87-2.06 3.73-4.76-.14-2.74-1.59-4.39-4.24-4.64-6.34-.59-12.7-1.2-19.06-1.4-4.31-.14-5.25 1.14-5.39 5.52-.03.83-.08 1.66-.18 2.49-.3 2.61.45 3.65 3.06 3.75 2.77.11 5.55.02 8.33.02zm56.98-11.7c-1.8.32-4.42.47-6.81 1.3-2.71.94-3.37 3.35-3.19 6.11.17 2.66 1.58 4.12 4.05 4.48 3.92.58 7.86 1.31 11.79 1.32 3.27.01 6.56-.81 9.8-1.48 1.76-.36 2.49-1.5 1.98-3.52-.9-3.59-3.74-6.48-7.75-7.1-3-.47-6.04-.69-9.87-1.12zm45.17 86.4c-1.48-.3-2.53-.67-3.59-.71-2.51-.07-5.04-.08-7.55.07-2.05.12-4.08.71-6.12.74-2.48.04-4.86-.05-6.24 2.56-2.21 4.17.46 11.28 4.88 12.95 2.66 1.01 5.33 0 6.29-2.45-2.47-.92-5.41.9-7.72-1.29 1.13-.52 2.26-.84 3.38-.81 4.43.13 8.85.5 13.28.54 3.14.02 4.37-1.4 4.19-4.52-.14-2.38-.53-4.75-.8-7.07zm-143.62-33.33c4.53-.28 9.25-.46 13.93-.96.94-.1 2.26-1.31 2.52-2.24 1.35-4.99-1.33-9.01-6.58-9.36-5.42-.36-10.88-.13-16.32.01-.79.02-1.9.83-2.29 1.57-2.85 5.38.38 10.86 6.37 10.97.74.01 1.48 0 2.39 0zm29.76 16.63c-3.41.52-6.27.81-9.05 1.42-3.7.82-4.11 1.83-2.89 5.53.45 1.38 1 2.87.88 4.25-.15 1.67-.22 3.25 1.62 3.48 1.77.22 4.24.32 5.3-.68 1.47-1.4 2.8-1.93 4.6-1.83 3.04.17 6.08.57 9.11.57s4.27-1.82 3.65-4.78c-.23-1.07-.74-2.27-.46-3.22.54-1.88-.53-2.4-1.84-2.68-3.78-.79-7.59-1.45-10.9-2.07zm29.23-16.51c3.98-.43 8.2-.88 12.41-1.34 2.02-.22 3.07-1.41 3.49-3.35.81-3.68-.54-5.94-4.3-6.6-3.53-.62-7.09-1.15-10.65-1.42-2.74-.2-5.55-.13-8.28.2-2.08.25-3.92 1.23-3.73 3.91.09 1.26.24 2.54.16 3.8-.14 2.21.76 3.63 2.94 3.95 2.55.38 5.12.56 7.96.85zm-3.15-27.74c4.02-.41 7.98-.75 11.92-1.25 5.69-.71 5.83-.94 5.6-6.75-.14-3.7-.98-4.23-4.57-4.08-5.95.24-11.92.26-17.87.16-2.99-.05-4.36.78-5.04 3.88-.97 4.49-.32 6.39 2.86 7.16 2.31.56 4.74.61 7.1.89zm-43.78-1.23c-8.6.64-10.07 2.22-9.67 10.76.15 3.23 1.33 4.28 4.6 3.9 5.62-.65 11.24-1.32 16.84-2.13.9-.13 2.18-.92 2.42-1.68.54-1.73.72-3.63.71-5.46-.02-2.16-1.21-3.38-3.54-3.29-1.46.06-2.97.15-4.38-.15-2.36-.5-4.66-1.29-6.98-1.96zm93.4 42.14h1.39c7.86 0 7.77 0 8.35-7.88.15-2-.58-3-2.29-3.45-1.42-.37-2.9-.77-4.34-.7-3.68.16-7.36.53-11.03.89-2.15.21-5.01-.17-6.24 1.04-1.21 1.2-.76 4.07-1.04 6.21-.07.55-.39 1.27-.15 1.62 1.06 1.58 2.06 3.34 3.51 4.48 1.35 1.06 2.87.61 3.9-1.15.35-.61 1.56-.93 2.4-1 1.84-.15 3.69-.05 5.54-.05zm-68.2-41.79c3.91.51 6.67-1.4 7.09-4.37.44-3.15-1.42-5.8-5.46-6.42-3.87-.6-7.89-.56-11.82-.37-2.82.14-5.67.79-8.39 1.6-2.18.65-3.86 2.5-3.28 4.8.37 1.48 2 2.85 3.39 3.79 1.06.72 2.63.89 3.99.92 4.83.1 9.65.04 14.48.04zm6.63 90.25c.2.17.4.34.6.5 2.15.29 4.29.74 6.44.8 1.36.03 3.32-.07 3.99-.92 1.87-2.36 4.16-2.89 6.86-2.75 2.03.11 4.07.4 6.08.27 1.3-.09 3.09-.42 3.74-1.31 1.17-1.62.62-4.3 3.08-5.31.12-.05.03-.7-.03-1.06-.35-2.43-2.24-3.69-4.77-3.46-2.46.22-4.95.27-7.42.31-2.46.04-4.99-.4-7.37.01-5.34.94-7.03 3.34-6.48 8.69.18 1.77-.2 2.53-2.12 2.64-.9.05-1.74 1.02-2.61 1.58zm-46.8-44.53s0 .07 0 .11c-1.02 0-2.04-.06-3.05.01-4.1.28-5.99 2.31-6.03 6.43-.05 5.18 5.56 9.28 10.51 7.67.42-.14.76-.49 1.16-.69 1.29-.65 2.54-1.51 3.92-1.85 1.77-.44 3.69-.29 5.48-.71 2.08-.48 4.22-1.13 3.99-4.06-.03-.43.53-.89.8-1.36.44-.77 1.41-1.91 1.18-2.27-.52-.81-1.59-1.65-2.52-1.76-5.13-.63-10.28-1.04-15.43-1.52zm82.56 69c-2.07-.36-3.67-.7-5.29-.92-2.62-.34-3.62.54-3.55 3.21.05 1.66.58 3.33.42 4.95-.09.94-1.1 1.8-1.7 2.7-.7-.73-1.62-1.35-2.04-2.21-.55-1.14-.46-2.61-1.09-3.69-.65-1.1-1.83-1.9-2.78-2.83-.88.98-2.18 1.81-2.57 2.95-1.43 4.16-1.14 8.44.28 12.53.52 1.5 1.91 2.71 2.9 4.05 1.02-1.08 1.95-2.27 3.08-3.22.74-.62 1.77-.91 2.66-1.34.27.96.9 1.99.74 2.87-.24 1.26-1.07 2.41-1.56 3.42 3.06-.33 5.96-.64 9.18-.99-1.11-7.04-2.55-14.2 1.31-21.49zm58.72-23.7c.96-.91 1.83-2.42 2.67-2.41 6.04.1 12.07.53 18.1.82.66.03 1.55.02 1.96-.37 1.99-1.85 1.07-6.99-1.33-8.36-1.83-1.05-3.47-2.45-5.38-3.31-1.58-.72-4.02-1.78-5.01-1.11-3.01 2.04-6.14 1.72-9.34 1.73-3.84 0-5.26 1.22-5.73 4.88-.51 3.97 1.24 7.29 4.05 8.12zm-93.8-17.93c2.91-.47 5.62-1.22 8.35-1.3 5.99-.17 5.99-.03 6.03-5.91 0-.28-.03-.56.01-.83.42-2.74-1.04-3.71-3.5-3.65-1.11.02-2.21.2-3.31.24-3.88.14-7.79.54-11.65.31-5.8-.35-6.99.57-6.92 6.44.07 5.35.59 5.95 5.81 6.8.63.1 1.24.34 1.86.53 2.64.81 3.18.42 3.32-2.62zm-3.18-45.84c3.09.06 3.72-.3 4.22-2.25 1.12-4.38-.38-7.32-4.67-8.46-6.4-1.7-12.92-2.02-19.5-1.27-1.92.22-3.07 1.34-3.27 3.2-.19 1.73-.31 3.53-.08 5.24.5 3.69 3.69 5.06 6.82 3.22.67-.39 1.69-.24 2.54-.26.6-.01 1.44.41 1.77.14 4.23-3.43 9.54-.22 14.01-2.31-.59.87-1.18 1.75-1.85 2.75zm46.17 61.27c.04.24.09.49.13.73 2.84-.29 5.71-.42 8.52-.91 3.11-.55 5.85-2 7.25-4.98.37-.79.1-2.69-.47-3-6.79-3.74-13.98-5.47-21.53-2.61-4.08 1.55-5.9 6.51-4.03 10.45.43.9 1.89 1.95 2.78 1.87 2.48-.22 4.9-.99 7.35-1.54zm-13.69-34.59c.86-3.54-.19-5.97-3.21-6.99-1.98-.67-4.16-1.04-6.25-1.05-4.62-.01-9.25.31-13.87.46-2.98.1-3.95 1.08-3.74 4.11.15 2.21.41 4.42.77 6.61.12.72.55 1.81 1.06 1.96.74.21 1.7-.22 2.53-.49 1.86-.61 3.65-1.62 5.55-1.85 2.36-.29 4.8.06 7.21.11 3.23.06 6.56.3 7.44-4.04 1.04.49 1.67.78 2.5 1.17zm11.2-11.15c2.55-1.52 3.53-4.12 3-7.24-.45-2.59-1.79-4.3-4.51-4.43-5.72-.28-11.44-.53-17.16-.58-.98 0-2.44.77-2.88 1.61-1.56 2.98-1.47 6.08.53 8.92 1.46 2.08 4.37 2.83 6.39 2.26 4.69-1.33 9.45-2.44 14.41-3.69.09 1.3.15 2.08.23 3.17zm-97.24.64c2.95 0 5.91.11 8.86-.05.84-.05 2.06-.63 2.39-1.31 2.3-4.86-.78-11.04-6.08-11.7-3.52-.44-7.15-.03-10.73.09-.58.02-1.44.37-1.67.81-1.44 2.87-2.99 5.73-4 8.76-.71 2.11.41 3.51 2.93 3.43 2.77-.09 5.54-.02 8.31-.02zm25.18-55.48c3.28-.27 6.04-.44 8.79-.73 6.09-.64 6.65-1.37 5.98-7.41-.26-2.35-1.36-3.7-3.87-3.81-3.41-.14-6.83-.71-10.21-.52-2.88.16-5.76 1-8.55 1.81-.68.2-1.32 1.41-1.49 2.25-.25 1.23.03 2.55-.08 3.82-.18 2.14.82 3.41 2.81 3.77 2.35.42 4.74.59 6.63.81zm-27.14 27.39c-1.05-.47-1.44-.74-1.87-.82-4.72-.88-9.43-1.78-14.16-2.58-3.1-.53-5.51.68-6.89 3.47-.85 1.72-1.33 3.63-1.94 5.46-.69 2.07-.14 3.4 2.22 3.71 4.98.64 9.95 1.34 14.93 1.97.37.05.97-.24 1.17-.56 2.18-3.47 4.31-6.98 6.55-10.64zm72.72-68.96c0 .08-.02.16-.03.23-3.21.29-6.49.31-9.61 1-1.27.28-2.23 2.02-3.33 3.09 1.12 1.06 2.07 2.51 3.4 3.08 1.46.63 3.28.7 4.91.56 5.43-.46 10.85-1.05 16.25-1.79.86-.12 1.98-1.12 2.23-1.94.17-.54-.87-1.94-1.61-2.18-2.62-.82-5.35-1.3-7.97-1.89.14-.31.41-.89.99-2.15h-50.15c-.03.31-.06.62-.09.93 1.22.23 2.44.63 3.67.65 10.07.18 20.14.29 30.2.4 3.71.04 7.42 0 11.14 0zm54.81 131.34c-2.7-.24-6.04-.47-6.65 2.78-.53 2.85.09 6.06.82 8.96.53 2.12 2.11 1.98 3.82.42.85-.78 2.26-1.32 3.42-1.33 3.32-.02 6.65.56 9.95.36 1.99-.12 4.5-.74 5.72-2.08 1.18-1.29 1.35-3.83 1.26-5.79-.04-.82-1.83-2.13-2.92-2.24-5.12-.54-10.28-.75-15.43-1.07zm-32.95-16.88c-4.68.42-8.81.93-12.95 1.11-2.6.11-3.68 1.43-3.89 3.73-.11 1.28-.1 2.6.09 3.87.55 3.64 2.49 5.03 6.04 4.06 4.01-1.1 7.84-2.25 12.18-1.15 3.07.78 5.97-1.97 6.44-5.13.49-3.32-.63-4.89-4.34-5.87-1.33-.35-2.72-.48-3.56-.62zm12.23-62.4h2.22c3.45-.05 6.26-2.59 6.63-6.03.19-1.74-.64-2.55-2.37-2.65-2.67-.16-5.33-.48-8-.59-3.86-.16-7.74-.42-11.58-.18-2.78.17-4.89 1.86-5.2 4.88-.23 2.21-.28 4.61 2.15 5.81 2.95 1.46 6.64 2.94 9.13.72 2.36-2.1 4.53-1.93 7.02-1.96zm-121.61 41.52c.2.3.41.59.61.89.73-.52 1.72-.89 2.15-1.59 1.06-1.72 1.98-3.55 2.76-5.42 1.67-3.99 1.02-5.13-3.17-5.81-4.72-.77-9.44-1.55-14.17-2.25-.51-.07-1.33.22-1.61.63-1.49 2.1-3.02 4.21-4.23 6.48-1.04 1.96-1.11 4.58 1.35 5.1 4.95 1.03 10.08 2.95 15.09-.12.5-.3 1.24-.21 2.28-.36-.5 1.17-.78 1.81-1.06 2.46zm122.63 32.83c3.85.2 7.61.42 11.37.58 1.94.08 3.89.2 5.81.02 3.38-.32 4.65-2.37 3.71-5.57-.29-.97-.74-1.99-.66-2.95.16-2-.86-2.64-2.56-2.78-2.95-.23-5.89-.61-8.84-.63-2.85-.02-5.73.12-8.54.58s-3.46 2.02-2.47 4.65c.78 2.05 1.48 4.12 2.19 6.08zm-5.78-65.88c-1.18-3.55-2.76-4.56-6.19-4.45-2.3.07-4.61-.2-6.91-.29-3.03-.11-6.09-.53-9.07-.2-2.9.32-4.52 3.11-4.12 5.95.67 4.82 1.82 6.16 5.5 6.09 1.36-.03 2.72-.43 4.06-.72 2.47-.55 4.91-1.33 7.41-1.68 2.68-.37 5.36-.31 6.92-3.18.37-.68 1.47-.96 2.41-1.52zm-4.46-32.24c4.95-.47 9.47-.9 13.98-1.32 2.45-.23 2.29-2.34 2.29-3.79 0-1.33-.65-3.56-1.54-3.86-7.09-2.4-14.35-3.01-21.35.22-1.23.57-2.25 2.62-2.47 4.12-.3 1.99 1.04 3.49 3.2 3.83 2.09.33 4.2.59 5.9.82zm18.77 36.92c.08.24.16.48.24.72 3.43-.3 7.47.88 9.12-3.8.09-.27.56-.48.9-.57 2.19-.59 1.72-2.22.79-3.17-1.14-1.16-2.77-2.36-4.29-2.51-3.94-.4-7.95-.32-11.92-.25-1.73.03-3.52.33-5.17.86-2.5.8-2.94 2.25-2.05 4.75.49 1.36.7 2.84.95 4.27.38 2.15 2.14 2.99 4.07 2.2 2.39-.98 4.9-1.67 7.36-2.48zm-45.49-48.16c-2.95.4-5.6.75-8.25 1.12-2.01.28-2.72 1.61-2.87 3.49-.17 2.05-.64 4.33 1.68 5.38 4 1.82 8.1 1.06 12.15-.08 1.9-.53 3.76-1.25 5.69-1.62 1.52-.3 3.22.09 4.66-.38 1-.33 2.25-1.53 2.37-2.48.13-.99-.81-2.24-1.55-3.18-.39-.49-1.31-.69-2.02-.79-4.02-.54-8.06-1.01-11.84-1.48zm-13.17 3.09c.02-.36.05-.73.07-1.09-1.66-.49-3.33-1.41-4.98-1.38-4.69.1-9.3-2.19-14.03-.4-.24.09-.55 0-.83-.02q-6.31-.21-6.4 5.96c-.04 2.94.63 3.56 3.43 3.56 3.87 0 7.74.14 11.6.21 1.75.03 3.55.28 5.23-.06.88-.17 2.06-1.31 2.21-2.17.4-2.26 1.04-4.1 3.69-4.62zm23.82 20.12c.3-.08 1.18-.3 2.06-.53 2.63-.71 5.23-1.55 7.89-2.1 1.89-.39 3.88-.21 5.77-.59 3.49-.69 4.24-3.13 1.73-5.71-.86-.88-2.11-1.72-3.27-1.88-2.53-.35-5.13-.34-7.69-.31-3 .04-6.07-.04-8.98.54-1.67.33-3.74 1.53-4.5 2.94-2.26 4.15.71 7.51 7 7.63zm59.32 44.55c0 .07-.02.14-.02.21-.93 0-1.86.07-2.77-.01-2.57-.24-3.78 1.16-4.11 3.46-.26 1.82-.41 3.68-.4 5.51 0 2.28 2.13 3.32 4.07 2.09.69-.43 1.4-1.24 2.07-1.21 3.82.16 7.99-1.38 11.2 2.11.35.38.99.79 1.45.74 1.42-.15 3.02-.19 4.14-.92.57-.37.57-2.19.28-3.21-1.24-4.42-4.28-7.06-8.76-7.91-2.35-.44-4.76-.59-7.14-.87zm-17.19 93.11c.75 2.81 1.13 4.92 1.88 6.88 1.95 5.1 4.7 6.19 9.82 4.23 1.53-.59 2.22-1.46 1.92-3.15-.8-4.46-1.25-9.01-2.43-13.37-.56-2.09-2.45-3.82-3.74-5.71-.99 1.1-1.96 2.2-2.96 3.29-.31.34-.77.59-.98.98-1.26 2.38-2.47 4.79-3.51 6.84zm-18.95-97.77c1.6-.31 3.92-.3 5.74-1.24 1.92-.99 3.36-2.9 5.12-4.5-1.91-3.61-5.25-4.22-8.53-4.33-4.68-.15-9.39.09-14.07.41-.95.06-2.44 1.06-2.62 1.87-.44 1.94-.55 4.07-.2 6.02.18 1.03 1.54 1.92 2.52 2.66.15.11 1.14-1.02 1.82-1.46.59-.38 1.33-.9 1.93-.82 2.67.34 5.32.87 8.29 1.39zm-82.82-38.49c-8.39.17-10.75 1.6-12.82 7.75-1.08 3.21.28 5.16 3.64 4.85 4.48-.41 8.96-.99 13.41-1.65.86-.13 2.04-.74 2.35-1.44 1.9-4.36-1.81-9.61-6.58-9.51zm-27.19 70.86c5.77.09 7.48-1.72 7.01-7.48-.08-1.01-.06-2.13-.51-2.97-.57-1.06-1.52-2.63-2.39-2.69-3.17-.21-6.38.09-9.58.26-.27.01-.61.43-.76.74-1.4 2.8-2.83 5.59-4.11 8.44-.87 1.95.01 2.93 2.07 3.07 2.76.18 5.51.42 8.27.64zm45.67 66.14c.25 3.58.23 6 .66 8.35.21 1.15 1.12 2.95 1.9 3.05 1.53.2 3.66-.1 4.66-1.09 1.18-1.17 1.97-3.28 1.96-4.98-.04-4.76-.52-9.53-.95-14.28-.16-1.76-.93-3.05-3.15-3.07-2.13-.02-3.44.81-3.78 2.8-.59 3.44-.98 6.91-1.29 9.23zm147.32 9.56c4.91-.02 5.91-1.31 4.62-6.01-.59-2.14-1.49-4.22-1.81-6.39-.47-3.18-1.74-5.58-4.52-7.36-1.98-1.26-3.5-1.34-4.09.9-.68 2.59-.61 5.39-.74 8.1-.06 1.26.4 2.56.25 3.8-.54 4.48 1.64 6.97 6.29 6.95zm-161.7-8.75c-.25-.07-.5-.13-.76-.2 0-1.2.3-2.5-.06-3.58-.83-2.48-1.71-5.04-3.1-7.22-1.01-1.57-3.02-1.81-4 .29-2.97 6.37-3.7 12.97-.76 19.53 1.43 3.19 4.18 3.34 5.76.21 1.42-2.79 1.98-6.01 2.92-9.04zm101.66-124.36c2.64-.4 4.92-.73 7.2-1.09 2.37-.37 2.78-1.65 1.89-3.75-3.15-7.46-10.51-8.13-16.3-6.41-.8.24-1.62 1.28-1.92 2.14-1.06 3.04.51 6.65 3.53 7.83 1.85.72 3.91.91 5.6 1.28zm-89.7-54.1c0-.26-.02-.53-.02-.79-2.28.24-4.67.17-6.81.84-1.27.4-2.31 1.88-3.16 3.08-.23.33.5 1.95 1.01 2.07 2.13.52 4.34.86 6.53.95 4.41.18 8.83.22 13.25.17 2.47-.03 5-.09 7.37-.67.78-.19 1.53-2.05 1.59-3.19.09-1.44-.75-2.51-2.61-2.49-5.71.09-11.43.03-17.15.03zm25.36 167.14c0 .58-.1.98.01 1.3 2.41 6.82 2.69 13.56-.59 20.24-.22.44.28 1.73.73 1.91 3.14 1.26 6.34 1.51 9.47.14-.85-2.39-1.92-4.41-2.27-6.55-.97-5.92-2.35-12 2.99-16.86.35-.32.52-1.37.27-1.68-.3-.38-1.18-.56-1.73-.45-2.98.59-5.93 1.29-8.89 1.96zm25.94-159.39c-.02-.19-.03-.38-.05-.56-3.93.4-7.88.66-11.78 1.28-1.19.19-2.22 1.34-3.32 2.06 1 1.12 1.82 2.94 3.02 3.23 3.9.94 7.94 1.73 11.93 1.79 2.95.04 6.04-.84 8.85-1.87 2.52-.93 2.63-3.11.44-4.67-.98-.7-2.32-1.06-3.54-1.19-1.83-.2-3.69-.05-5.54-.05zm11.18 251.6c1.09-.37 1.92-.79 2.8-.92 3.15-.45 6.3-.97 9.47-1.16 3.55-.22 4.69-3.15 7.43-5.63h-7.27c.75-.89 1.2-1.44 1.66-1.99-.07-.26-.13-.52-.2-.78-4.26.28-8.6.2-12.77.96-3.72.68-4.9 4.29-2.87 7.22.52.75 1.12 1.45 1.77 2.29zm-45.74-243.84c5.45-.47 9.86-.86 14.27-1.23 2.3-.19 1.35-1.95 1.55-3.15.25-1.51-.09-2.59-1.87-2.64-6.13-.16-12.27-.4-18.4-.39-1.16 0-2.33 1-3.49 1.55.76 1.47 1.15 3.55 2.35 4.26 1.89 1.11 4.32 1.29 5.59 1.61zm-37.47-12.98c-1.61.67-3.39 1.08-4.78 2.05-2.82 1.98-2.44 4.59.75 5.84 1.98.77 4.02 1.43 6.09 1.88.68.15 1.64-.35 2.28-.82s.91-1.48 1.57-1.88c1.86-1.13 1.36-2.38.39-3.7-.48-.64-1.07-1.2-1.82-2.02 2.52-.19 4.39-.92 3.82-3.68-.38-1.84-4.43-3.37-6.7-2.68-2.24.68-2.61 1.84-1.59 5zm161.9 152.13c-.29-.34-.58-.67-.86-1.01-.34-.07-.7-.09-1.02-.22-1.22-.48-2.42-.99-3.63-1.49.67-.76 1.32-1.55 2.03-2.28 1.22-1.26.87-3.09-.89-3.35-1.97-.29-4.05-.28-6.03-.02-3.69.48-4.41 1.82-3.71 5.54.49 2.59.66 5.25 1.13 7.85.12.69.74 1.65 1.32 1.8.86.23 2.1.15 2.79-.34 2.1-1.49 3.98-3.28 6.01-4.86.86-.66 1.9-1.09 2.85-1.63zm-41.74-86.9c1.65-.21 3.33-.29 4.93-.69.53-.13 1.34-1.19 1.23-1.6-1.21-4.27-3.09-8.18-7.21-10.4-2.4-1.29-4.63-.54-5.68 1.59-2.77 5.62.57 11.09 6.74 11.1zm-37.49-61.08c2.56-.43 5.27-.62 7.8-1.39 1.62-.49 2.97-1.82 4.45-2.78-1.54-.84-3.05-2.33-4.63-2.41-5.51-.27-11.05-.16-16.57.09-.75.03-1.88 1.65-1.98 2.62-.08.78.98 2.28 1.77 2.46 2.95.68 6 .96 9.16 1.41zm57.14 104.36s0 .03 0 .05c1.29-.07 2.63.05 3.85-.28.66-.18 1.69-1.32 1.57-1.68-.93-2.67-1.65-5.59-3.31-7.77-2.37-3.1-8.44-2.5-9.07.71-1.37 6.99-1.37 8.8 5.85 8.97zm-149.66-44.41c1.29-.07 2.63.05 3.85-.28.98-.27 2.43-.96 2.59-1.69.5-2.4.9-4.95.61-7.36-.36-3.02-3.12-4.21-5.53-2.37-1.99 1.52-3.82 3.53-5.06 5.7-2.55 4.45-1.51 5.98 3.54 6zm46.51 111.03c-.12 0-.23.02-.35.03.32 2.93.46 5.89 1.03 8.77.42 2.14 1.63 2.39 3.12 1.02 3.36-3.1 4.79-12.74 2.08-16.38-.81-1.09-2.77-1.54-4.27-1.73-.41-.05-1.36 1.91-1.53 3.04-.27 1.71-.07 3.5-.07 5.25zm-11.42-169.22c-4.93-1.08-9.89-1.84-14.94-.42-.6.17-1.42.47-1.64.94-.55 1.17-1.06 2.47-1.04 3.72 0 .39 1.72 1.01 2.69 1.08 3.13.23 6.28.32 9.43.33 5.42.02 5.42-.02 5.52-5.65zm68.58 6.41s0-.06 0-.08c2.12 0 4.25.11 6.36-.03 1.84-.12 2.31-1.26 1.62-2.92-1.89-4.55-11.86-6.24-15-2.4-.73.9-.99 2.62-.7 3.76.2.75 1.73 1.45 2.76 1.62 1.62.27 3.31.07 4.97.07zm13.72 181.04c-.12-.32-.25-.63-.37-.95-4.82.85-9.64 1.7-15.07 2.66.65-1.49.91-2.11 1.18-2.73-.17-.25-.33-.5-.5-.75-1.45.79-3.88 1.34-4.14 2.41-.39 1.64.32 3.77 2.93 4.2 5.56.91 10.33-1.15 15.02-3.63.41-.22.63-.8.94-1.21zm-9.24-173.93c-.15 3.01 1.69 5.1 4.53 5.19 2.44.07 4.01-1.38 4.17-3.84.18-2.82-2.22-5.78-4.78-5.9-2.06-.1-3.79 1.91-3.92 4.56zm51.34 104.91c3.02-.07 3.51-.7 2.81-2.57-.74-2-1.41-4.04-2.4-5.91-.67-1.26-1.67-2.48-2.81-3.33-2.01-1.5-2.49.73-3.17 1.79-.37.57-.26 1.78.11 2.43 1.05 1.85 2.3 3.59 3.55 5.32.69.96 1.53 1.83 1.91 2.27zm-24.84 39.66c-3.33 3.5-3.27 10.77-.01 14.33 3.56-4.33 3.63-11.48.01-14.33zm-146.19-86.61c1.48.31 2.09.52 2.71.54 3.7.12 3.89-.37 3.55-3.4-.24-2.14.48-4.38.74-6.58.09-.8.08-1.62.12-2.43-.36-.1-.72-.2-1.07-.3-1.96 3.95-3.92 7.89-6.04 12.17zm-57 104.51c1.32-1.01 2.85-2.04 4.2-3.27.61-.56 1.38-1.8 1.15-2.22-.4-.74-1.62-1.63-2.32-1.5-1.66.29-3.26 1.07-4.79 1.83-.3.15-.43 1.23-.22 1.68.64 1.36 1.48 2.63 1.98 3.48zm3.59 6.51c-2.15.85-4.13 1.64-6.12 2.42 1.14 2.99 5.15 5.21 8.59 4.52-.82-2.32-1.64-4.61-2.47-6.94zm213.08 15.3c.29-.46.57-.91.86-1.37-.99-.97-1.89-2.6-3-2.76-2.03-.3-4.19.27-6.3.48.18.72.21 1.98.55 2.07 2.6.66 5.25 1.08 7.89 1.58zm-60.92 46.47c-1.62 2.28-3.01 4.12-4.23 6.05-.25.4-.12 1.37.21 1.75 1.02 1.2 5.18.38 6.28-1.25-4.69-.62-.62-3.81-2.25-6.56zm115.25-82.69c-3.04 3.54-3.34 8.99-.39 12.35-.29-4.43 3.16-7.94.39-12.35zm-181.73 7.66c-.4.04-.8.08-1.19.13-.46 3.45-1.03 6.94.78 10.26.34.63 1.34.9 2.03 1.34l.53-.57c-.71-3.72-1.43-7.44-2.14-11.16zm-17.98 10.83c2.75-1.64 3.47-7.03 1.39-11.05-.86 3.57-2.66 7.02-1.39 11.05zm-2.03-13.91.98.17c.43-2.06.92-4.11 1.25-6.18.19-1.19.65-2.76-1.45-2.82-2.13-.06-2.41 1.48-2.17 3.01.3 1.97.92 3.89 1.4 5.82zm-111.92 7.42c.53 1.79 1.48 2.15 2.96 1.43 1.33-.65 2.75-1.15 3.99-1.93.71-.45 1.14-1.34 1.69-2.03-.96-.26-2.1-.98-2.83-.68-2.01.83-3.85 2.09-5.81 3.21zm301.26-82.36c-3.53 2.03-4.61 5.24-6.2 8.01-.08.15.91 1.21 1.06 1.14 1.06-.53 2.51-1.01 2.94-1.92.95-2.04 1.36-4.32 2.21-7.23zm-272.24 61.85c-3.56 2.27-3.38 7.24 0 9.7zm355.55-42.71c-3.02-3.6-9.19-4.28-11.94-1.43 4.03.48 7.62.92 11.94 1.43zm-406.93 70.78c.14.29.28.58.42.86 4.3-.45 12.31-4.67 13.49-7.63-4.96 2.41-9.43 4.59-13.91 6.77zm159.63-.36c3.59-2.44 4.68-9.52 2.22-12.57-.74 4.19-1.41 8.02-2.22 12.57zm-102.32 12.79c-2.2 1.26-2.33 2.45-.4 3.56 2.39 1.38 4.95 1.41 7.47.32.35-.15.51-.74.78-1.15-2.6-1.63-6.41 1.29-7.84-2.72zm-58.44-96.59c-.46-.09-.91-.17-1.37-.26-.77 1.34-1.85 2.61-2.18 4.04-.18.79.89 1.87 1.4 2.82.84-.54 2.3-.99 2.41-1.65.25-1.6-.13-3.3-.26-4.95zm160.4 68.4c1.41-2.31 1.69-4.42 1.12-6.53-.18-.65-1.33-1.14-2.13-1.47-.27-.11-1.22.53-1.19.77.22 2.36-.14 4.94 2.21 7.23zm88.32-8.16c-1.5 2.26-2.84 4.04-1.49 6.43.87 1.53 1.73 1.77 2.83.15 1.69-2.5.07-4.27-1.34-6.57zm-249.32-19.77c-1.22 1.69-2.15 2.67-2.62 3.84-.13.32 1.36 1.84 1.69 1.71 1.32-.5 2.49-1.44 3.71-2.21-.73-.88-1.46-1.75-2.78-3.33zm34.2 19.12c-2.86 1.68-5.72 3.37-8.58 5.05 3.89 1.29 7.3-.73 8.58-5.05zm99.45 24.08c-.52-3.33-.94-6.05-1.36-8.77-2.37 3.21-1.7 7.38 1.36 8.77zm87.92-26.4c4.06 1.9 7.32.43 7.83-3.34-2.79 1.19-5.31 2.26-7.83 3.34zm-121.86 34.66-.2-.93c-2.16-1.11-4.36-.67-6.5.21-.45.18-.65.95-.96 1.45.52.31 1.11.95 1.55.86 2.06-.42 4.08-1.05 6.12-1.6zm278.83-9.18.66-.99c-2.35-2.29-4.31-5.17-7.92-5.54-.25.36-.49.73-.74 1.09 2.67 1.81 5.34 3.62 8 5.44zm-47.95-11.69c.29-.05.59-.1.88-.15 1.31-3.19.36-6-1.39-8.67-.32.05-.63.11-.95.16.49 2.89.97 5.77 1.46 8.66zm-282.97-5.2v-9.54c-2.82 2.17-2.73 6.85 0 9.54zm307.12 6.95c-4.47.1-5.76 1.84-4.45 6.14 1.61-2.22 2.86-3.94 4.45-6.14zm-284.11 23.78c0-.29-.01-.58-.02-.87-1.48-.31-3.13-.31-4.4-1-2.32-1.26-2.6.14-3.21 2.1 2.76.56 5.23 1.13 7.63-.23zm148.52-203.13c-2.39-2.45-5.09-2.57-7.92-.65 2.54 2.21 5.05 0 7.92.65zm89.93 159.92c.8 1.09 1.41 1.94 2.03 2.78.52-.75 1.56-1.59 1.45-2.24-.16-.97-1.12-1.8-1.74-2.69-.5.61-.99 1.23-1.74 2.14zm69.64 24.32c.16-.31.31-.61.47-.92-1.73-1.82-3.59-3.37-6.26-3.38-.19.38-.39.75-.58 1.13 2.12 1.06 4.25 2.11 6.37 3.17zm-390.33-71.29c-.04.29-.08.57-.12.86 2.22 1.98 3.38 2.05 5.82-.34-2.3-.21-4-.37-5.7-.52zm221.95.09c2.22 1.33 3.43-.18 4.75-1.1.16-.11-.07-.77-.12-1.17-1.28.38-2.58.72-3.84 1.16-.27.09-.41.55-.79 1.1zm-147.62 62.23c-.25-.19-.51-.38-.76-.57-2 .9-3.29 2.33-3.51 4.58l.84.63c1.14-1.55 2.29-3.09 3.43-4.64zm288.1 1.41c.08.27.16.54.24.81 1.44-.44 2.87-.89 4.31-1.33-.16-.38-.43-1.09-.45-1.08-1.38.5-2.74 1.05-4.1 1.6zm-311.99 4.33c-.43-1.63-.86-3.25-1.43-5.4-1.72 2.8-1.51 3.78 1.43 5.4zm173.34-36.4c3.66.57 5.17-.81 4.2-3.4-1.3 1.05-2.52 2.04-4.2 3.4zm-188.4-34.84c.08.45.16.91.24 1.36 1.11-.14 2.24-.24 3.32-.51.09-.02-.08-1.13-.12-1.73-1.15.29-2.29.58-3.44.88zm16.07 62.21c.39-.1.79-.19 1.18-.29-.26-1.34-.53-2.69-.79-4.03-1.97 1.78-2.49 3.28-.39 4.32zm187.15-91.2h-4.59c1.76 2.61 3.13 2.03 4.59 0zm22.01 109.4c.59-1.07 1.19-1.71 1.05-2-.42-.88-1.13-1.63-1.73-2.44-.36.55-1.1 1.18-1 1.62.19.83.87 1.54 1.67 2.81zm-39.12 72.84c2.33-2.02 2.3-3.98 0-5.49zm-147.92-95.4c.4.11.8.22 1.21.32l1.62-5.34-1.09-.3c-.58 1.77-1.16 3.55-1.74 5.32zm193.68-22.78c.03.5.06 1 .09 1.5 1.33-.14 2.66-.29 3.99-.43-.03-.36-.06-.71-.09-1.07h-3.98zm126.25-35.12c.05.3.1.6.15.9 2.47 1.22 3.06 1.06 3.84-1.51-1.49.23-2.74.42-3.99.62zm-208.96 131.54.75-.61c-.49-1.04-.9-2.14-1.52-3.1-.2-.31-.98-.4-1.44-.3-.23.05-.58.92-.45 1.08.82 1.03 1.75 1.96 2.65 2.93zm163.43-42.97c-.45-.28-.9-.57-1.36-.85-.72 1.19-1.44 2.38-2.16 3.57.39.25.77.5 1.16.76.78-1.16 1.57-2.31 2.35-3.47zm-122.71-171c-.07-.44-.14-.88-.21-1.32-1.29.21-2.58.43-3.87.64l.2 1.26zm-12.52 83.95c-.05.48-.11.97-.16 1.45 1.3.14 2.6.27 3.89.41.05-.47.1-.93.16-1.4-1.3-.15-2.59-.31-3.89-.46zm-142.68 54.39c-.44.03-.89.06-1.33.09.06 1.12.12 2.23.18 3.35.47-.03.93-.06 1.4-.09-.08-1.11-.16-2.23-.25-3.34z" />
  <path d="m324.16 103.2c2.4-.76 4.8-1.53 7.2-2.29.15.35.3.7.46 1.05-3.1 1.5-6.2 2.99-9.29 4.49.15.37.3.73.45 1.1 5.16-.98 9.69-4.55 15.05-4.72.17.33.35.66.52.99-2.06 1.48-4.12 2.96-6.38 4.58.65.53 1.17.95 1.8 1.47-.64.68-1.22 1.29-2.12 2.25 5.17 1.28 9.58-1.37 14.18-1.28.12.27.24.53.36.8-1.25.57-2.46 1.26-3.75 1.68-7.92 2.56-15.87 5.02-23.78 7.61-1.32.43-2.49 1.33-3.73 2.01.09.36.19.72.28 1.08 2.2-.21 4.48-.16 6.6-.69 4.93-1.25 9.77-2.89 14.7-4.15 3.03-.78 6.16-1.19 9.26-1.66.85-.13 1.76.11 2.64.19.12.33.23.66.35.99-2.83 1.46-5.67 2.92-8.78 4.52 1.09.52 2.01.96 3.65 1.74-2.63.89-4.67 1.58-7.41 2.51 1.33.82 1.96 1.2 2.6 1.59-.53.42-1.06.85-1.92 1.53 5.17 2.37 10.73-1.18 15.41 1.64l.07 1.01c-4.4.67-8.8 1.34-13.21 2.01-.01.31-.02.63-.04.94 1.25.45 2.5.9 3.75 1.36-.02.26-.05.52-.07.78h-27.73c-.04.3-.07.6-.11.9.61.2 1.21.47 1.84.6 7.07 1.46 14.13 3 21.23 4.3 2.15.39 4.43 0 6.63.2 2.47.23 5.14.19 6.77 2.48l-.23 1.15c-3.72-.45-7.44-.91-11.15-1.36-.11.28-.23.57-.34.85 2.25 1 4.5 1.99 6.74 2.99-.05.24-.09.48-.14.72-3.31-.4-6.62-.81-9.92-1.21-.08.35-.17.7-.25 1.05 2.78 1.09 5.55 2.18 8.33 3.27-.05.17-.1.33-.16.5-2.16-.2-4.32-.4-7.18-.67 2.37 4.81 7.8 3.7 10.32 7.72-5.2.11-9.45-1.63-13.75-3.05-4.23-1.39-8.45-2.82-12.89-3.7 9.28 6 19.47 10.28 28.42 16.78-4.69 1.56-7.98-2.35-12.43-3.08.48 1.47.85 2.59 1.22 3.71l-.5.6c-1.05-.56-2.17-1.02-3.15-1.69-1.76-1.19-3.35-2.66-5.17-3.72-1.61-.94-3.44-1.35-5.31.78 3.51 3.12 6.93 6.15 10.35 9.19-.18.23-.35.46-.53.69-4.85-.97-8.02-5.05-12.26-7.17-.19.16-.39.31-.58.47 1.9 2.28 3.81 4.57 5.71 6.85-.24.26-.47.52-.71.78-4.07-3.45-8.15-6.89-12.22-10.34l-.69.52c3.22 4.56 6.43 9.12 9.65 13.69-7.04-2.45-9.28-10.22-15.29-13.71-.26.17-.51.33-.77.5 1.36 2.96 2.73 5.92 4.09 8.88-.35.21-.7.41-1.05.62-6.74-6.33-10.46-15.07-16.44-22.01-.35.17-.71.35-1.06.52 2.94 7.28 5.88 14.55 8.82 21.83-.34.16-.67.32-1.01.48-3.56-1.78-2.7-6.89-6.7-9.29v6.67c-.36.06-.73.12-1.09.18-.94-2.43-1.87-4.87-2.81-7.3-.24.04-.48.08-.72.12 0 .76-.11 1.54.02 2.28.29 1.61 1.17 3.33-1.49 3.86-.32.06-.63 1.04-.65 1.6-.02.82.45 1.67.32 2.45-.14.89-.71 1.7-1.09 2.55-.43-.69-1.05-1.33-1.25-2.08-.91-3.44-1.69-6.9-2.52-10.36-.39.03-.78.07-1.16.1-.15 2.21-.17 4.44-.49 6.62-.14.99-.86 1.9-1.32 2.84-.26-.09-.53-.18-.79-.27-.28 2.3-.55 4.6-.83 6.9-.42.03-.85.06-1.27.1-.82-3.85-1.64-7.7-2.42-11.37-3.7-.65-5.76 1.32-7.11 4.52-.21-.15-.42-.31-.62-.46v-5.62c-1.73 1.43-2.88 2.39-4.04 3.35-.25-.05-.49-.1-.74-.15 1.26-5.24 2.52-10.48 3.78-15.72-.31-.15-.61-.31-.92-.46-5.4 6.56-7.45 15.41-13.46 21.56-.23-.09-.45-.18-.68-.28.67-2.16 1.34-4.32 2.14-6.89-1.24.31-1.99.49-3.29.81.51-1.41.85-2.49 1.28-3.53.39-.96.87-1.89 1.32-2.83-.3-.22-.59-.44-.89-.66-2.25 2.6-4.5 5.21-6.75 7.81-.27-.15-.54-.31-.81-.46.97-2.25 1.95-4.5 2.92-6.74-.13-.14-.26-.27-.38-.41-1.91 1.56-3.83 3.12-6 4.89-.24-.97-.41-1.61-.71-2.8-1.54 1.62-2.83 2.97-4.12 4.33-.17-.13-.35-.25-.52-.38.29-.97.58-1.95 1.05-3.53-6.87 2.44-9.31 9.51-15.85 12.7.73-1.24 1.07-1.89 1.48-2.5 2.61-3.83 5.2-7.66 7.87-11.44.68-.96 1.55-1.84 2.48-2.57 3.59-2.81 5.43-6.84 7.95-10.39-.19-.24-.39-.49-.58-.73-1 .49-2.15.8-2.96 1.5-1.25 1.08-2.53 2.27-3.36 3.67-3.32 5.59-8.41 7.77-14.88 7.93.87-1.25 1.7-2.45 3-4.3-6.1.87-8.45 6.89-13.63 7.66l-.59-.64c2.6-2.42 5.19-4.83 8.37-7.78-1.93.25-3.06.4-4.2.54-.29-.38-.57-.76-.86-1.14 1.42-.61 2.83-1.21 4.25-1.82-.34-.43-.67-.87-1.01-1.3-2.98 1.23-5.97 2.46-8.95 3.69l-.47-.91c2.8-1.71 5.59-3.42 8.75-5.35-.98-.61-1.41-.91-1.86-1.16-1.97-1.13-2.08-2.58-.04-3.66 1.53-.81 3.31-1.14 4.96-1.74 6.15-2.21 12.29-4.43 18.28-7.2-10.78-.99-20.57 4.53-31.1 4.77-.11-.34-.21-.69-.32-1.03 3.28-1.27 6.56-2.55 10.56-4.1-1.48-.79-2.15-1.15-2.99-1.59.26-.69.52-1.4 1.13-3.02-5.46.98-10.29 1.85-15.12 2.72-.14-.45-.27-.9-.41-1.35 1.4-.6 2.74-1.45 4.2-1.74 3.72-.74 7.5-1.16 11.23-1.86 2.1-.39 4.14-1.08 6.21-1.64-.05-.41-.1-.83-.15-1.24-2.56.16-5.11.32-7.67.48-.05-.29-.1-.58-.15-.87 1.1-.42 2.2-.84 3.3-1.26 0-.32.02-.63.02-.95-2.08-.23-4.15-.58-6.23-.64-2.31-.07-4.62.18-6.94.21-.82.01-1.78 0-2.42-.4-.65-.4-.98-1.31-1.45-1.99.71-.27 1.4-.71 2.14-.78 2.21-.23 4.43-.33 6.88-.49-1.93-4-1.69-4.26 2.16-4.31 11.67-.15 23.33-.37 35-.61 1.53-.03 3.05-.38 4.57-.88-12.6-1.5-25.42-.85-37.79-3.95 0-.33.02-.67.02-1 1.22-.08 2.45-.1 3.66-.26 1.18-.16 2.34-.46 3.51-.71.02-.42.04-.84.06-1.25-2.46-.67-4.93-1.33-7.39-2 .04-.27.08-.55.12-.82 3.46-1.82 7.17 2.09 11.27-.38-6.07-3.79-12.99-2.78-19.02-5.03 5.96-2 11.9 1.21 18-.54-1.21-.63-2.42-1.26-3.63-1.89.02-.18.03-.37.05-.55h4.4c.08-.24.15-.47.23-.71-1.51-1.04-3.01-2.09-4.52-3.13.06-.19.13-.37.19-.56 2.3.42 4.62.79 6.91 1.27 9.51 2.01 19.02 4.06 28.52 6.1.72.15 1.47.46 2.18.38 1.14-.12 2.25-.51 3.37-.78-.98-.64-1.88-1.57-2.96-1.87-7.74-2.15-15.52-4.16-23.28-6.25-.96-.26-1.85-.77-2.99-1.27.51-.86.91-1.52 1.63-2.71-4.98-2.23-9.9-4.43-14.83-6.64.17-.42.33-.84.5-1.27 3.57 1.12 7.13 2.24 10.7 3.37.15-.23.3-.46.44-.69-.89-1.08-1.78-2.17-2.67-3.25.13-.17.27-.35.4-.52 1.55.54 3.11 1.08 4.66 1.62.2-.29.39-.59.59-.88-.94-.77-1.85-1.58-2.84-2.28-1.23-.87-3.57-1.09-1.7-3.52.19-.24-.43-1.1-.67-1.68-.32-.78-.62-1.57-.41-2.74 10.1 5.9 20.2 11.8 30.3 17.7.22-.33.44-.66.66-.99-3.02-3.4-6.47-6.22-10.51-8.54-3.38-1.95-6.48-4.42-9.59-6.79-.45-.34-.31-1.45-.44-2.2.67-.01 1.38-.18 2 0 .91.26 1.75.76 2.89 1.28.15-.92.25-1.42.32-1.94.22-1.76 1.16-2.03 2.48-1.09s2.51 2.07 3.83 3.02c.58.41 1.34.58 2.02.85.15-.22.3-.44.46-.65-.99-1.22-1.99-2.43-2.98-3.65.1-.27.2-.54.3-.82 1.42.39 2.84.79 4.86 1.34-1.11-1.93-2.05-3.54-2.98-5.15.2-.22.4-.44.6-.66 2.11 1.29 4.22 2.58 6.33 3.86.25-.14.5-.28.75-.42-2.24-5.01-4.48-10.01-6.72-15.02.32-.24.64-.48.96-.72 1.26 1.17 2.77 2.17 3.73 3.55 3.44 4.94 6.68 10.01 10.03 15.02 1.68 2.51 3.41 4.97 5.51 7.24-2.22-9-8.32-16.43-9.93-25.84 2.57 3.09 5.43 5.58 9.83 6.55-.19-1.12-.33-2.3-.6-3.45-.35-1.53-.96-3.01-1.14-4.55-.08-.63.65-1.36 1.01-2.05.62.42 1.43.71 1.81 1.28.85 1.27 1.5 2.68 2.26 4.08 2.89-2.33 4.22-8.04 2.77-10.82-1.16-2.21-3.19-1.81-5.13-1.77-1.56.03-3.13 0-4.93-.35 4.98-4.46 5.03-10.91 7.48-16.28.49-1.08 1.09-2.18 1.9-3.04 2.43-2.61 5.94-2.1 7.56 1.08.67 1.31 1.11 2.74 1.61 4.14 1.63 4.6 3.24 9.21 4.92 14-4.32.89-3.22 5.01-4.03 8.05-.34 1.29-.13 2.75-.04 4.13.03.46.41 1.17.75 1.25.38.09.96-.33 1.35-.65.81-.66 1.56-1.4 2.33-2.11.16 1.1.32 2.21.48 3.31.05.35.12.69.26 1.42 3.45-2.22 2.21-7.65 7.27-9.09-2.07 11.5-6.29 21.71-11.21 31.7.23.15.46.31.68.46.71-.81 1.54-1.54 2.09-2.44 3.5-5.68 6.93-11.4 10.4-17.09.77-1.27 1.45-2.63 2.44-3.71.76-.83 1.93-1.27 2.92-1.89-.08 1.16-.1 2.32-.25 3.46-.08.58-.39 1.12-.05 2.07.8-.91 1.53-1.88 2.42-2.69.48-.44 1.22-.58 1.84-.86.17.67.56 1.36.47 2-.16 1.23-.59 2.42-.8 3.21 2.21 0 4.22-.09 6.17.17.17.02.02 2.38.02 3.7 2-.76 4.3-1.62 6.59-2.49.21.34.41.69.62 1.03-9.76 8.51-19.51 17.03-29.27 25.54.12.14.23.28.35.42 5.13-3.68 10.1-7.62 15.43-10.98 5.15-3.24 9.41-7.89 14.96-10.49.28.31.57.62.85.93-1.01 1.61-2.03 3.22-3.04 4.82.14.18.28.37.42.55 1.3-.55 2.61-1.1 3.91-1.65.24.18.47.37.71.55-2.5 3.06-7.65 5.08-4.56 10.24 2.19-.5 4.59-1.04 6.99-1.59.16.3.32.6.48.9-.75 1.04-1.5 2.09-2.41 3.36.58.11.97.16 1.36.25.56.13 1.12.3 1.68.45-.18.59-.17 1.42-.56 1.72-1.31 1.01-2.71 1.94-4.17 2.71-4.92 2.58-9.89 5.05-14.82 7.61-1.01.53-1.91 1.27-2.86 1.91.11.23.23.47.34.7.89-.29 1.81-.5 2.66-.88 8.1-3.65 16.2-7.32 24.28-11 2.03-.93 4.01-1.72 6.56.4-5.34 2.88-10.26 5.53-15.19 8.19.16.35.32.71.48 1.06zm-81.46 43.19c2.13.25 3.55.55 4.97.56 10.18.07 20.37.04 30.55.13 5.92.05 11.84.28 17.76.4 3.24.06 6.48.14 9.72.04 1.94-.06 3.38-1.04 2.51-3.23-2.56-6.43-6.03-12.32-11.14-17.06-2.11-1.95-3.97-1.3-5.28 1.36-.45.91-.98 1.77-1.83 3.29-.96-2.26-1.6-3.78-2.4-5.65-2.58 2.77-2.5 5.93-3.14 8.83-.62 2.85-1.17 5.71-1.74 8.57-.34-.04-.69-.09-1.03-.13-.3-1.04-.74-2.06-.87-3.12-.42-3.3-.56-6.65-1.14-9.92-.28-1.59-1.32-3.04-2.02-4.56-.86 1.37-1.88 2.67-2.53 4.13-.74 1.66-1.13 3.47-1.85 5.77-1.26-3.49-2.12-6.22-3.27-8.81-.34-.75-1.58-1.62-2.31-1.54-.75.08-1.66 1.14-2.01 1.97-.57 1.37-.73 2.9-1.07 4.37-.68-.7-.75-1.42-1.02-2.05-.49-1.2-1.1-2.35-1.66-3.53-1.15.96-2.78 1.71-3.33 2.94-1.01 2.24-1.34 4.79-2.05 7.17-.44 1.49-1.07 2.92-1.61 4.37-3.31-3.85-.11-8.31-2.91-12.36-3 5.82-6 11.64-9.31 18.06zm21.2-22.41c.47.06.94.13 1.41.19 1.21-5.33 2.43-10.66 3.64-15.98 1.09 4.74 1.59 9.37 2.31 13.96.14.9 1.11 2.37 1.66 2.36.98-.03 2.19-.79 2.82-1.62.61-.81.57-2.1.9-3.16.32-1.05.74-2.07 1.12-3.11.24.03.49.06.73.09.43 1.86.93 3.71 1.27 5.58.29 1.59.97 2.49 2.72 2.5 1.63 0 2.92-.29 3.42-2.09.33-1.17.79-2.31 1.2-3.46.25.02.51.04.76.06.24 1.01.27 2.15.78 3 .52.87 1.53 2.06 2.29 2.03 1.62-.06 2.76-1.3 2.31-3.07-.33-1.31-1.04-2.56-1.77-3.72-1.72-2.74-3.58-5.4-5.34-8.12-3.88-5.98-7.7-11.99-11.62-17.94-.61-.92-1.56-1.61-2.3-2.35-.51.36-.73.43-.8.58-5.39 10.75-10.79 21.49-16.09 32.29-.32.65.21 1.73.35 2.61 1.14-.36 2.79-.38 3.32-1.16 1.06-1.56 1.48-3.56 2.22-5.34.35-.84.84-1.62 1.27-2.42.32.06.65.12.97.18.15 2.7.31 5.41.46 8.11zm13.42-65.07c.42.05.84.09 1.26.14.34-3.75.75-7.5.98-11.26.04-.66-.62-1.36-.95-2.04-.79.5-1.89.84-2.3 1.56-.45.79-.47 1.97-.35 2.94.37 2.9.9 5.77 1.37 8.66zm4.13 76.91 1.04-.04c2.02-2.18 2.19-5 2.03-7.77-.05-.82-1.3-1.58-2-2.37-.77.77-2.21 1.56-2.18 2.3.1 2.64.7 5.26 1.12 7.88zm-5.97-91.34c1.42-1.52 3.13-2.5 3.16-3.54.06-2.31-2.24-2.35-3.92-2.51-1.59-.15-3.75.25-3.36 2.17.27 1.32 2.33 2.28 4.13 3.88zm-20.62 89.55c.33.08.66.15.99.23.69-2.02 1.51-4.01 1.98-6.07.15-.64-.65-1.49-1.02-2.25-.81.45-2.03.71-2.35 1.39-1.06 2.25-.89 4.56.4 6.7zm14.67-16.35c-.52 0-1.03 0-1.55-.01-.29 1.72-.72 3.44-.79 5.18-.02.6.86 1.24 1.33 1.86.62-.53 1.79-1.07 1.77-1.59-.04-1.82-.48-3.62-.77-5.43zm10.87 42.5c-1.98 2.28-1.29 6.15 1.3 7.9-.43-2.63-.87-5.27-1.3-7.9zm33.9-68.63c-.25-.39-.5-.78-.75-1.16-2.65 1.76-5.3 3.52-7.95 5.28l.76 1.13c2.65-1.75 5.29-3.5 7.94-5.25zm-41.48 39.64c.3 0 .6 0 .9.01.25-1.64.51-3.28.7-4.93 0-.05-.76-.19-1.17-.28-.3 1.51-.61 3.02-.86 4.55-.03.19.27.44.42.66zm3.93-97.7c-.61-.72-1.04-1.23-1.47-1.73-.45.57-1.25 1.13-1.26 1.71-.01.55.79 1.12 1.24 1.68.44-.49.88-.97 1.5-1.66z" />
  <path d="m70.37 200.84c-.54 2.45-1.21 4.87-1.59 7.34-.42 2.74-.52 5.53-.89 8.27-.22 1.61-.31 3.51-2.7 3.49-2.14-.02-2.46-1.7-2.75-3.24-1.49-7.81-2.92-15.64-4.39-23.46-.81-4.31-.89-8.81-4.59-12.16-1.56-1.41-.65-3.39 1.5-3.46 2.74-.1 5.54.08 8.23.55 1.94.34 2.63 1.59.99 3.39-.62.68-1.29 1.79-1.17 2.59.7 4.93 1.6 9.84 2.47 14.75.05.31.37.57.99 1.5.38-2.28.7-3.92.92-5.58.61-4.58 1.13-9.18 1.8-13.75.22-1.5.37-3.31 2.55-3.4 2.16-.09 2.5 1.59 2.8 3.15 1 5.18 1.94 10.36 2.91 15.54.15.78.33 1.55.89 2.36 1.91-4.56 4.24-8.98 3.52-14.1-.15-1.06-1.35-2.09-2.25-2.92-1.69-1.54-1.71-3.19.45-3.69 2.31-.53 4.91-.58 7.23-.11 1.95.4 2.65 2.49.95 3.85-4.7 3.75-4.29 9.15-5.03 14.18-1 6.86-1.87 13.74-2.87 20.61-.24 1.64-.53 3.47-2.86 3.39-2.18-.07-2.3-1.85-2.59-3.36-.79-4.18-1.46-8.38-2.28-12.55-.22-1.1-.81-2.12-1.23-3.18-.33 0-.66 0-.99 0z" />
  <path d="m124.02 211.97c.33-1.93.66-3.87.98-5.8.25-.12.49-.25.74-.37.61.95 1.55 1.83 1.76 2.87.71 3.38.35 6.8-1.82 9.52-.99 1.24-2.95 2.11-4.58 2.35-2.06.31-3.51-1.29-3.96-3.22-.64-2.78-.84-5.66-1.41-8.46-.38-1.88-.77-3.85-1.65-5.51-1.13-2.13-3.32-2.48-5.58-2.09-2.14.37-2 2.18-2.17 3.69-.48 4.34-1.08 8.69 2.82 12.1 1.23 1.07.55 2.55-.9 2.65-3.4.24-6.84.29-10.23.03-1.79-.14-2.39-1.92-1.1-3.07 4.86-4.31 3.79-9.95 3.6-15.29-.2-5.54-.88-11.07-1.52-16.59-.12-1.05-.87-2.15-1.6-2.98-1.8-2.04-1.4-3.95 1.28-4.44 6.02-1.11 12-1.04 17.66 1.74 6.86 3.36 8.94 9.75 5.19 16.48-1.17 2.09-1.49 3.87-.78 6.23.83 2.81.96 5.83 1.46 8.75.08.49.49.92.75 1.38.35.01.7.03 1.05.04zm-14.13-28.66c-.22.04-.97.09-1.65.32-2.62.87-2.22 3.21-2.14 5.11.1 2.31-1.07 5.24 1.97 6.59 2.28 1.01 4.53.62 6.38-1.19 1.86-1.83 2.33-4.83 1.16-7.45-.99-2.24-2.7-3.44-5.72-3.37z" />
  <path d="m409.46 198.34c-1.22 4.98-2.14 10.06-3.72 14.93-2.47 7.62-13.7 9.74-19.7 4.04-3.5-3.32-5.46-7.42-6.33-12.07-1.29-6.92-.61-13.64 2.51-20 3.25-6.63 9.05-9.39 15.73-7.67 4.13 1.06 6.6 3.92 8.23 7.62.7 1.6 1.3 3.28 1.63 4.99.5 2.62.71 5.3 1.04 7.96.2.07.4.13.6.2zm-9.33-3.41c-.63-3.62-1.08-7.48-2.09-11.18-.32-1.17-2.07-2.54-3.31-2.7-1.09-.14-2.8 1.01-3.5 2.07-1.09 1.65-1.76 3.65-2.27 5.59-2.04 7.73-1.05 15.35.91 22.97.62 2.42 1.08 4.62 4.02 4.74 2.98.12 3.63-2.34 3.97-4.49.89-5.55 1.5-11.14 2.27-17.01z" />
  <path d="m489.97 201.47c-1.19.41-1.89.63-2.56.89-5.41 2.09-9.96.66-12.74-4.43-1.21-2.22-2.13-4.79-2.41-7.29-.54-4.74.61-9.15 5.02-11.81 4.46-2.69 11.11-2.05 15.2 1.22 4.16 3.32 5.98 7.91 6.71 12.99 1.1 7.64-.13 14.97-3.71 21.79-2.48 4.72-7.17 6.64-13.34 5.66-4.95-.78-8.15-3.73-9.56-8.55-.82-2.81.9-5.97 3.68-6.88 2.57-.84 4.54.65 4.24 3.34-.18 1.65-.76 3.25-.92 4.9-.26 2.71 1.18 4.15 3.83 3.57 1.62-.36 3.61-1.09 4.49-2.32 2.71-3.78 2.87-8.18 2.07-13.07zm-.04-11.86c-.71-2.14-1.15-4.56-2.29-6.57-1.51-2.66-4.61-2.55-6.42-.11-2.29 3.1-2.27 10.12.03 13.24 2 2.7 5.51 2.61 7.02-.41.88-1.76 1.07-3.86 1.65-6.15z" />
  <path d="m145.56 220.24c-3.67-.25-6.54-.38-9.39-.67-1.85-.19-2.55-1.34-1.36-2.88 3.1-4.01 3.57-8.76 3.48-13.45-.12-6.28-.8-12.55-1.4-18.8-.09-.94-1.09-1.77-1.58-2.7-.4-.77-1.08-1.75-.87-2.39.19-.6 1.37-1.19 2.14-1.24 4.34-.29 8.69-.59 13.03-.56 8.15.04 13.1 5.62 11.01 13.44-1.32 4.94-1.72 9.17-.1 14.14.96 2.95.1 6.89-1.04 9.97-.68 1.83-3.31 3.47-5.4 4.11-2.94.9-6.19.79-8.54 1.04zm-1.75-11.4s.05 0 .07 0c0 .65-.08 1.3.01 1.93.33 2.33.7 4.69 3.68 5.12 2.82.4 5.08-1.11 6.03-4.13 1.01-3.21.8-6.38-.7-9.41-1.02-2.06-2.7-3.29-5.04-3.31-2.07-.02-3.54.7-3.57 3.19-.02 2.21-.31 4.41-.48 6.61zm.19-19.97c.02.28.1 1.38.14 2.48.07 2 .15 3.9 2.81 4.29 2.63.38 4.78-.2 6.16-2.58 1.65-2.84.96-8-1.7-9.87-1.22-.86-3.33-1.21-4.74-.79-1.06.32-1.74 2.19-2.39 3.47-.31.61-.16 1.45-.28 3z" />
  <path d="m178.2 177.09c3.37.49 6.84.65 10.1 1.54 6.9 1.89 9.92 10.5 5.85 16.44-1.37 2-1.41 3.43.03 5.43 4.41 6.16 1.23 15.97-5.83 18.52-5.59 2.02-11.3 1.76-17.01.77-2.39-.42-2.93-2.19-1.02-3.69 2.78-2.18 3.34-5.12 3.19-8.19-.38-7.85-.96-15.7-1.63-23.53-.09-1.02-1.1-2.01-1.8-2.92-1.44-1.88-.93-3.5 1.41-3.72 2.2-.21 4.44-.05 6.66-.05.02-.2.04-.4.05-.6zm11.53 30.47c-.43-3.37-1.32-6.07-4.13-7.82-2.52-1.56-4.96-1-6.3 1.64-1.93 3.82-2.1 7.83-.25 11.72 1.63 3.43 5.61 3.93 7.84.85 1.34-1.85 1.91-4.24 2.83-6.39zm-.14-18.38c-1.04-1.99-1.72-4.29-3.18-5.89-2.67-2.91-7-1.52-7.67 2.37-.4 2.33-.49 4.77-.33 7.13.07.95 1.01 2.27 1.89 2.65 4.41 1.91 8.79-1.18 9.29-6.26z" />
  <path d="m438.97 189.97c0 3.15.06 6.3-.02 9.44-.05 1.91.71 2.94 2.63 3.21.81.11 1.8.26 2.33.78.71.7 1.54 1.84 1.42 2.65-.11.7-1.44 1.31-2.33 1.76-1.27.64-3.82 1.31-3.76 1.6.39 2.16 1.19 4.27 2.05 6.31.42.99 1.26 1.81 1.9 2.71-1.08.52-2.14 1.42-3.25 1.48-3.23.18-6.48.1-9.71-.06-.79-.04-1.55-.78-2.32-1.19.41-.75.76-1.55 1.25-2.24.63-.89 1.7-1.61 2-2.58 1.11-3.55 1.04-6.13-3.75-6-2.5.07-5 .07-7.5 0-2.99-.07-3.94-1.1-3.17-3.99.54-2.01 1.55-3.94 2.62-5.74 2.85-4.75 5.82-9.42 8.79-14.09.94-1.48 1.74-3.27 3.1-4.19 1.56-1.05 3.64-1.5 5.56-1.78 1.47-.21 2.25.79 2.19 2.48-.12 3.14-.03 6.29-.03 9.43zm-7.91.72c-.28-.1-.56-.21-.84-.31-1.83 2.74-3.77 5.41-5.43 8.24-.74 1.26-.9 2.86-1.33 4.31 1.43.03 2.86.08 4.28.06.74 0 1.51-.01 2.2-.23.54-.17 1.35-.6 1.4-1 .48-3.71 1.14-7.44-.28-11.07z" />
  <path d="m103.47 105.11c3.14 3.84 7.2 3.54 11.16 3.57.18-.23.36-.46.54-.68-.81-.86-1.53-1.83-2.45-2.54-1.24-.96-2.86-1.5-3.89-2.62-.88-.95-1.82-2.67-1.51-3.67.32-1 2.16-2.16 3.31-2.14 2.73.05 5.46.73 8.17 1.21 1.15.21 2.27.58 3.47.89-.01-4.02-3.14-6.62-7.88-6.51.96-3.28 2.89-5.44 6.18-7.15-.08 5.56 3.57 8.38 6.93 11.42 1.71 1.55 3.52 3.04 4.96 4.82.71.87 1.23 2.58.83 3.45-.38.82-2.1 1.46-3.19 1.4-2.28-.11-4.54-.72-6.81-1.15-1.51-.28-3.01-.61-4.52-.91-.18.25-.35.5-.53.74 1.8 1.82 3.68 3.58 5.38 5.49.83.94 1.34 2.17 1.99 3.26-1.36.55-2.75 1.62-4.07 1.54-3.84-.23-7.64-1.06-11.47-1.41-4.07-.37-8.16-.48-12.57-.72.97-3.13 2.82-6.08 5.97-8.3z" />
  <path d="m361.96 219.82c-2.03 0-4.07.09-6.09-.05-.61-.04-1.48-.6-1.68-1.13-.15-.39.6-1.12.96-1.7.95-1.53 2.37-2.94 2.79-4.6 1.92-7.54 1.74-15.2.62-22.84-.31-2.1-1.38-3.24-3.79-3.07-.86.06-1.8-.97-2.7-1.51.69-.76 1.26-1.72 2.09-2.25 2.01-1.28 4.22-2.23 6.21-3.53 3.95-2.59 6.14-1.73 6.21 3.04.08 5.53-.47 11.06-.7 16.59-.14 3.41-.36 6.83-.27 10.24.08 2.94 1.01 5.6 3.58 7.48.56.41 1.14 1.45.98 1.99-.17.59-1.17 1.25-1.85 1.31-2.11.17-4.24.06-6.37.06 0 0 0-.02 0-.03z" />
  <path d="m422.24 99.65h5.64c-1.14 2.88-3.46 3.33-5.48 3.44-1.75.09-3.8-.48-5.22-1.46-.63-.44-.39-2.79.11-4 .69-1.67 1.99-3.09 3.03-4.62 1.22-1.81 2-3.99.32-5.58-1.02-.97-3.21-1.4-4.66-1.07-2.23.5-4.32 1.8-4.32 4.68v1.51c-3.19-.71-5.3-2.55-7-4.9-1.09-1.5-.05-1.86 1.23-2.5 3.35-1.66 6.78-3.33 9.76-5.56 1.64-1.23 2.69-3.49 3.5-5.48.69-1.71 1.48-2.37 3.04-1.46 5.18 3.03 9.79 6.76 12.33 12.34 2.32 5.09.39 7.68-5.23 7.66-.69 0-1.64.06-2.01.49-1.6 1.87-3.03 3.88-5.03 6.53zm1.97-19.25c-1.92.05-3.24.8-3.15 2.96.1 2.34 3.55 4.86 6.6 4.85 1.78 0 3.13-.55 3.13-2.63 0-2.58-3.43-5.25-6.58-5.18z" />
  <path d="m151.89 86.15c-1.52 3.4-3.82 5.27-6.76 6.31-.5.18-1.78-.54-2-1.12-1.88-4.78-5.68-7.7-9.86-10.14-1.22-.71-2.97-.57-4.49-.7-.77-.07-1.55.14-3.26.31 1.04-1.34 1.45-2.11 2.07-2.63 3.11-2.61 6.18-5.3 9.47-7.69 2.29-1.67 4.77-3.25 7.4-4.23 3.37-1.26 6.19.57 7.19 4.06.82 2.85 5.05 5.79 8.19 5.68.05-.07.13-.14.14-.22.16-1.05.32-2.09.47-3.14 1.15.64 2.82 1.02 3.32 2 .67 1.31.99 3.36.4 4.58-.48 1-2.64 1.94-3.82 1.71-3.14-.6-6.12-2.03-9.25-2.76-1.44-.34-3.32-.23-4.56.47-1.13.64-2.6 2.9-2.26 3.47.9 1.53 2.59 2.68 4.16 3.67.75.47 1.94.25 3.48.39zm-8.58-15.21c-2.98-.03-6.83 2.64-6.39 4.86.24 1.19 1.96 2.62 3.26 2.93 1.94.46 6.12-3.34 6.15-5.08.04-2.03-1.2-2.71-3.02-2.7z" />
  <path d="m442.18 100.76c7.24-.04 11.58 3.23 13.54 9.7.33 1.08 1.09 2.1 1.86 2.96 1.78 1.98 1.84 3.82-.53 4.96-2.25 1.08-4.86 1.82-7.33 1.89-2.55.07-3.35-2.26-1.77-4.34 1.23-1.62 2.76-3.03 3.85-4.73 2.1-3.25.69-5.84-3.18-6.13-4.55-.33-13.16 4.73-15.01 8.82-1.1 2.43-.27 4.45 2.32 5.64 2.29 1.05 3.96.42 5.06-2.07.78-1.76 1.85-1.87 2.85-.47 1.28 1.8 2.31 3.78 3.32 5.76.23.46.15 1.43-.18 1.72s-1.15.02-1.76 0c-1.47-.04-2.94 0-4.4-.12-1.75-.14-3.97.21-5.15-.72-3.25-2.53-5.59-5.96-6.35-10.14-1.2-6.56 3.07-11.6 10.49-12.58.92-.12 1.85-.13 2.36-.17z" />
  <path d="m240.24 47.57c-3.03 2.37-6.22 1.7-9.16 2.04-.27.03-1.01-1.08-.95-1.59.78-6.62-1.28-12.22-6.17-17.06.66-.42 1.13-.94 1.67-1.02 5.84-.85 11.66-2.03 17.53-2.32 5.1-.26 6.65 2.3 5.35 7.27-.38 1.48 1.88 7.27 3.27 7.8.34.13 1.2-.88 1.7-1.47.46-.56.75-1.26 1.12-1.89.48.68 1.27 1.32 1.39 2.06.43 2.56-.94 4.87-3.07 5.61-2.72.95-5.28.12-6.76-2.23-.94-1.49-1.65-3.16-2.79-4.46-.85-.97-2.27-2.09-3.36-2.02-1.46.1-4.02 1.27-4.03 2-.01 1.93.98 3.92 1.82 5.77.28.61 1.32.86 2.43 1.53zm-3.94-9.97c2.62-1.3 4.74-2.02 6.46-3.28 2.05-1.49 1.52-3.82-.97-4.13-2-.25-4.13.33-6.17.73-1.43.28-2.84 1.07-2.08 2.83.57 1.32 1.69 2.41 2.76 3.86z" />
  <path d="m398.12 78.35c-5.01-.07-8.89-1.36-12.11-4.28-3.24-2.94-3.65-6.22-1.43-9.96 5.48-9.25 16.86-10.57 24.07-2.79 3.13 3.38 3.38 6.64.47 10.15-3.04 3.67-6.26 7.2-11 6.89zm-5.23-2.56c1.65-.92 3.62-1.54 4.88-2.84 2.43-2.51 4.52-5.36 6.62-8.17 1.79-2.39 1.34-4.2-1.58-4.87-1.67-.38-4.16-.11-5.34.94-3.02 2.67-5.76 5.75-8.14 9.01-2.07 2.83-.25 5.54 3.56 5.93z" />
  <path d="m298.73 25.99c1.1-.24 2.1-.73 3.03-.62 5.19.63 10.42 1.13 15.52 2.22 2.97.63 5.97 2.23 6.34 5.8.39 3.84-.72 7.44-3.95 9.83-1.66 1.23-3.69 2.2-5.7 2.69-5.57 1.37-11.18 1.02-16.73-.35-.66-.16-1.27-.56-1.65-.74 3.99-5.8 5.73-11.7 3.14-18.84zm5.65 13.24c-.07 4.62.65 5.65 3.28 5.38 3.61-.36 5.85-2.57 7.09-5.81 1.27-3.32 1.63-6.72-.76-9.72-2-2.51-7.05-2.13-7.72.55-.87 3.48-1.4 7.04-1.88 9.59z" />
  <path d="m158.09 56.62c6.43-4.03 12.42-8.19 19.77-9.52 3.94-.71 6.12 1.38 6.41 5.23.09 1.23 1.06 2.69 2.07 3.51 4.96 4.05 4.73 7.49-1 10.48-4.01 2.09-8.11 4-12.19 5.96-.54.26-1.18.29-1.83.45.33-5.29-7.15-14.53-13.22-16.1zm17.66 1.73c.69-1.18 1.59-2.29 2.02-3.56.63-1.87.08-3.94-1.96-4.1-2.11-.16-4.58.34-6.35 1.43-1.02.63-1.66 3.27-1.19 4.52.46 1.23 2.49 1.97 3.94 2.69.56.28 1.43-.09 2.16-.16-1.67 2.26-1.4 3.9 1 6.12 2.38 2.2 5.37 2.36 7.46.41 2.53-2.36 2.11-5.67-1.14-6.82-1.82-.64-3.96-.38-5.95-.53z" />
  <path d="m199.34 59.26c.76-8.53-3.12-13.82-10.18-17.74 1.25-.65 1.98-1.16 2.79-1.43 4.55-1.54 9.09-3.13 13.69-4.48 1.55-.46 3.3-.42 4.95-.35 3.08.14 4.67 1.57 4.74 4.66.05 2.15.88 3.59 2.29 5.08 2.48 2.62 2.37 5.21-.4 7.43-5.07 4.05-11.24 5.28-17.88 6.83zm8.16-14.36c-1.41 1.08-3.39 1.88-4.07 3.3-.77 1.64 2.91 6.27 4.56 6.45 3.06.33 5.51-1.41 5.59-3.97.09-2.85-2.49-5.23-6.08-5.79zm-1.69-7.27c-5.82.03-7.29 1.99-5.18 6.07.81 1.56 1.82 2.4 3.5 1.56 2.22-1.12 5.83-.59 5.9-4.3.02-1.01-1.35-2.2-2.32-3.01-.54-.45-1.59-.27-1.91-.31z" />
  <path d="m358.94 37.24c1.9.35 3.85.52 5.7 1.07 6.15 1.83 8.78 7.89 6.06 13.7-2.91 6.21-11.06 9.1-17.23 6.1-.83-.4-1.65-.83-2.46-1.28-5.34-3.01-6.2-5.61-3.5-11.06 1.06-2.13 1.9-4.74 3.65-6.07 2.05-1.57 4.97-1.99 7.52-2.91l.27.46zm6.82 5.35c-.52-.67-1.24-2.47-2.21-2.62-1.53-.23-3.83.12-4.74 1.16-2.36 2.67-4.23 5.79-6.12 8.85-1.11 1.8-1.61 3.82.32 5.54 1.72 1.53 4.61 1.63 6.36-.04 3.46-3.28 5.45-7.39 6.38-12.89z" />
  <path d="m325.39 49.35c4.78-2.66 6.84-6.43 8.45-10.5 1.07-2.69 2.07-5.45-.85-8.08 4.2-.19 7.98.84 12.22 2.35-4.8 2.59-6.74 6.66-8.37 10.81-.66 1.69-.74 3.84-.39 5.65.46 2.35-.67 2.82-2.32 2.44-2.73-.62-5.37-1.62-8.75-2.68z" />
  <path d="m452.24 435.47c2.71-2 4.8-3.58 6.93-5.09.33-.24.85-.28 1.28-.29 1.48-.03 2.95-.01 4.87-.01.7.26 1.95.72 3.16 1.17-1.45 2.79-6.94 4.8-8.59 3.62-2.73.22-4.8.38-7.65.61z" />
  <path d="m137.83 325.33c-1.51.23-2.76.42-4.01.61.01.31.03.62.04.93.47.23.94.46 1.42.68.38.18.77.34 1.3.57-2.26 1.17-9.63.47-10.89-1.11-.36-.45.2-2.37.37-2.38 3.87-.11 7.74-.05 11.6.02.06 0 .11.48.15.68z" />
  <path d="m461.15 217.14c.05 2.11-1.58 3.84-3.57 3.8-1.82-.04-3.83-2.72-3.69-5.2.11-1.93 1.02-3.44 3.18-3.53 1.92-.08 4.03 2.58 4.08 4.93z" />
  <path d="m106.79 323.51c5.33-2.4 10.7-1.64 16.48-.54-2.69 2.7-4.66 2.69-8.41.38-.03.28-.07.55-.1.83-2.66-.22-5.31-.44-7.97-.66z" />
  <path d="m158.39 305.25c-3.83 1.35-7.66 2.69-11.49 4.04-.26-.36-.52-.73-.77-1.09 1.35-1.66 2.71-3.32 4.06-4.99.23.16.46.33.69.49-.31.69-.62 1.39-1.12 2.49 3.12-.33 5.88-.62 8.65-.92 0 0-.02-.02-.02-.02z" />
  <path d="m509.03 342.87c2.03.9 3.53 1.51 4.99 2.22 1.91.94 1.89 1.91-.42 3.46.52-3.12-1.53-2.79-3.36-2.91-.66-.04-1.78-.37-1.84-.71-.11-.65.39-1.4.63-2.07z" />
  <path d="m135.7 331.04c4-.34 7.99-.68 11.99-1.02-3.74 2.28-7.84 1.61-11.84 1.71-.05-.23-.1-.46-.15-.7z" />
  <path d="m442.72 444.45c-1.73.68-3.44 1.46-5.22 1.96-.35.1-1.01-.88-1.52-1.37.5-.47.98-1.33 1.49-1.35 1.64-.07 3.3.16 4.95.28.1.16.2.32.3.48z" />
  <path d="m374.54 64.02c-.75.46-1.53 1.31-2.25 1.26-.77-.05-1.48-.95-2.22-1.48.66-.6 1.27-1.57 2-1.68.73-.12 1.6.63 2.41.99.02.3.04.61.06.91z" />
  <path d="m106.42 449.37c2.13-.31 4.26-.62 6.39-.94.06.3.11.6.17.9-2.11.41-4.23.81-6.34 1.22-.07-.4-.14-.79-.22-1.19z" />
  <path d="m64.54 302.92c-1.66.16-3.31.32-4.97.48-.05-.35-.09-.7-.14-1.05 1.65-.27 3.31-.53 4.96-.8.05.46.1.92.14 1.38z" />
  <path d="m465.02 436.37c1.72-.52 3.44-1.05 5.15-1.57.1.33.19.66.29 1-1.73.49-3.45.99-5.18 1.48-.09-.3-.17-.6-.26-.9z" />
  <path d="m53.59 333.57c-1.59.33-3.18.67-4.77 1-.08-.36-.16-.73-.25-1.09 1.58-.4 3.17-.8 4.75-1.2.09.43.18.86.27 1.29z" />
  <path d="m519 313.16h4.18c.02.31.04.62.05.93-1.38.11-2.75.22-4.13.32-.03-.42-.07-.84-.1-1.26z" />
  <path d="m50.62 292.43c-1.55.56-3.09 1.11-4.64 1.67-.13-.33-.25-.65-.38-.98 1.55-.61 3.09-1.22 4.64-1.83.13.38.25.76.38 1.14z" />
  <path d="m35.25 296.25c.92.06 1.84.12 2.76.19-.09.46-.18 1.33-.28 1.33-.87.01-1.74-.13-2.61-.22.04-.43.09-.87.13-1.3z" />
  <path d="m141.61 308.06-3.35.98c-.12-.42-.24-.85-.37-1.27l3.34-.83c.13.37.25.75.38 1.12z" />
  <path d="m522.09 317.58c-1.54-.16-3.09-.33-4.63-.49 0-.18.02-.36.02-.53h4.64c-.01.34-.02.68-.03 1.03z" />
  <path d="m518.57 298.76c-.53.45-.9.76-1.27 1.07-.32-.44-.82-.86-.89-1.34-.04-.25.68-.86 1.05-.85.33 0 .65.63 1.11 1.12z" />
  <path d="m523.05 299.61c1.28-.25 2.56-.51 3.84-.76.07.35.13.7.2 1.05-1.29.2-2.58.4-3.88.6-.05-.3-.11-.59-.16-.89z" />
  <path d="m161.48 301.12c-1.47.26-2.93.53-4.4.79-.05-.28-.1-.56-.15-.83l4.41-.75c.05.26.1.53.14.79z" />
  <path d="m36.66 313.48c-.96.32-1.92.65-2.89.97-.12-.31-.23-.63-.35-.94.96-.36 1.92-.73 2.88-1.09.12.35.24.71.35 1.06z" />
  <path d="m451.77 450.89-2.77 1.79c-.19-.29-.38-.57-.57-.86.91-.61 1.83-1.23 2.74-1.84.2.3.4.61.6.91z" />
  <path d="m180.85 467.34q8.82-10.29 8.88-17.37c1.47.49 2.87.78 4.09 1.41 2.78 1.44 5.69 2.77 8.15 4.65 2.95 2.26 2.94 4.77.1 7.22-2.7 2.33-1.94 5.21-2.44 8.65 1.46-.8 2.29-1.25 3.7-2.01 0 1.34.42 2.88-.08 3.3-1.33 1.1-3 2.05-4.66 2.36-.74.14-2.3-1.24-2.59-2.2-.49-1.63-.27-3.47-.34-5.23-.17-3.88-1.39-5.65-3.71-5.4-2.38.26-3.47 2.66-2.66 6.22.45 1.96-.31 2.6-1.97 1.87-2.15-.94-4.16-2.21-6.47-3.47zm18.93-8.04c-1.67-1.67-2.57-3.07-3.84-3.69-1.17-.57-3.69 2.07-3.09 3.4.52 1.13 2.12 2.08 3.43 2.41.73.19 1.82-1.04 3.5-2.12z" />
  <path d="m136.66 440.5c1.61-1.45 2.84-2.53 4.05-3.64 1.43-1.31 2.81-2.67 4.24-3.98 1.87-1.72 3.59-3.45 3.33-6.34-.14-1.5 1-1.86 2-1.1 3.29 2.51 6.7 4.94 9.59 7.87 2.06 2.09 2.07 4.94.71 7.77-3.48 7.26-10.41 9.5-17.29 5.35-2.72-1.64-5.4-3.43-6.62-5.93zm20.39-5.94c-.43-.57-1.08-2.22-2.26-2.79-1.06-.51-3.34-.37-3.95.39-2.32 2.89-4.53 5.99-6.11 9.33-1.16 2.45.75 4.3 3.48 3.98 3.67-.44 8.84-6.26 8.84-10.92z" />
  <path d="m258.64 477.98c.01-7.73 5.49-11.85 12.61-9.47.52.18 1.04.4 1.52.67 3.54 1.99 4.95 9.26 2.79 14.37-1.86 4.4-5.74 6.29-10.36 5.05-4.32-1.16-6.56-4.79-6.55-10.63zm12.53-1.22c-.07-.02-.14-.03-.21-.05-.08-1.29-.13-2.58-.24-3.87-.04-.45-.19-.91-.37-1.33-.92-2.16-2.78-2.45-4.33-.7-2.46 2.76-3.03 11.58-.8 14.55.53.71 1.74 1.51 2.44 1.36.84-.18 1.88-1.23 2.11-2.1.66-2.57.97-5.24 1.42-7.87z" />
  <path d="m334.13 469.01c.25-4.85.87-8.39 4.73-10.15 3.04-1.39 8.06-.23 10.48 3.04 1.79 2.41 3.15 5.45 3.69 8.4.77 4.15-2.38 7.46-7.24 8.67-4.7 1.17-8.28-.18-9.99-4.14-.93-2.16-1.32-4.55-1.67-5.83zm14.37 5.01c-1.32-3.82-2.35-7.38-3.82-10.74-.47-1.07-2.17-2.32-3.19-2.23-.98.09-2.49 1.74-2.6 2.83-.46 4.5.95 8.62 3.98 11.98.69.77 2.42 1.26 3.38.95.93-.3 1.49-1.78 2.25-2.79z" />
  <path d="m166.76 459.88c.8-.59 1.85-.96 2.03-1.58.33-1.09.58-2.66.03-3.43-.58-.82-2.14-.95-3.27-1.38-.27.93-.9 1.92-.75 2.78.31 1.88-.42 2.39-2.09 2.2-2.06-.23-4.18-1.89-5.27-4.27 5.14-1.1 8.12-5.13 11.6-8.52 1.05-1.02 2.18-2.05 3.45-2.76 3.15-1.78 5.46-.37 5.06 3.2-.31 2.74-1.12 5.42-1.78 8.11-.78 3.18-2.39 6.31-.05 9.47-2.9 1.13-6.74-.52-8.96-3.83z" />
  <path d="m127.42 419.34c-2.01-.72-4.14-3.16-5.98-.29-.7 1.08-1.1 2.9-.7 4.04 1 2.83 3.61 2.6 6.12 1.95-.64 3.35-2.44 4.29-5.21 2.79-3.99-2.17-6.75-5.6-9.49-9.67 7.25-1.72 10.91-7.16 15.09-12.59 3.96 1.96 7.34 5 9.87 8.9 1.12 1.73-1 4.95-3.08 4.87-2.11-.09-1.41-1.51-.85-2.56.88-1.64.82-3.41-.75-4.09-1.25-.55-3.16-.29-4.5.27-1.53.63-1.88 2.14-.84 3.73.41.63.59 1.41.88 2.12-.19.18-.37.37-.56.55z" />
  <path d="m406.86 431.16c-2.21 0-4.15-.2-6.02.05-2.69.35-3.97 1.93-3.52 4.02.56 2.57 2.54 2.71 4.56 2.26 2.16-.47 4.25-1.27 6.4-1.78 3.32-.78 5.41.11 6.55 2.6 1.27 2.8.72 5.49-2.04 7.29-2.93 1.9-6.11 3.45-9.26 4.99-.5.25-1.67-.13-2.07-.6-.59-.69-.77-1.73-1.13-2.63.76-.23 1.5-.57 2.27-.66 1.92-.21 3.89-.11 5.76-.5 1.75-.37 3.28-1.68 2.56-3.55-.36-.94-2.23-1.87-3.38-1.82-2.65.11-5.27 1.09-7.92 1.18-1.66.06-3.98-.35-4.86-1.46-.91-1.14-.97-3.57-.44-5.1 1.23-3.54 3.93-6.01 7.48-7.34 2.67-1 4.27-.13 5.06 3.05z" />
  <path d="m426.92 407.03c2.07-2.58 4.17-5.61 6.71-8.22 2.12-2.18 4.59-2.1 6.45-.3.51.49.63 1.38.92 2.08-.67.19-1.34.54-2 .53-.82 0-1.67-.56-2.43-.43-1.07.2-2.98.93-2.94 1.23.23 1.71.71 3.49 1.58 4.95.28.47 2.09.25 3.1-.03.87-.24 1.6-1.01 2.4-1.54.22.18.44.35.66.53-.3.62-.68 1.21-.87 1.85-.27.9-.87 2.27-.5 2.69 1.57 1.74 3.26 4.08 6.01 2.73.89-.44 1.41-2.35 1.45-3.62.05-1.36-.66-2.75-1.03-4.13l.81-.68c1.43 1.12 2.93 2.16 4.24 3.41.28.27.06 1.47-.31 1.92-2.35 2.85-4.74 5.67-7.26 8.37-.93 1-2.23 1.67-3.75 2.78-1.28-8.04-7.96-9.9-13.23-14.12z" />
  <path d="m222.47 474.85c1.81 3.21.55 6.69-1.91 6.31-4.76-.73-9.43-2.06-14.19-3.54 5.53-4.22 6.97-9.72 6.75-15.94-.07-1.88 1.18-2.51 2.76-2.11 3.22.82 6.43 1.74 9.56 2.83 1.75.61 1.97 4.4.37 5.35-.34.2-1.23-.05-1.53-.39-.39-.45-.29-1.33-.69-1.77-.84-.95-1.74-2-2.85-2.46-.54-.22-2.18.67-2.3 1.26-.27 1.36-.42 3.25.32 4.19 1.6 2.04.57 2-1.04 2.92-1.4.8-2.43 2.8-2.89 4.47-.2.74 1.23 2.31 2.26 2.91 1.67.96 3.23.3 4.17-1.44.37-.69.67-1.42 1.21-2.6z" />
  <path d="m432.55 428.23c-1.31 3.17-3.66 5.26-6.92 6.63-.27-5.23-6.93-12.29-11.71-12.26.45.9 1 1.63 1.18 2.44.16.71.19 1.82-.23 2.2-.44.4-1.58.39-2.24.13-2.53-.99-3.29-3.45-1.51-5.56 2.31-2.75 4.78-5.41 7.44-7.82 3.65-3.31 6.63-2.06 7.92 3.52-1.38-.62-2.46-1.24-3.63-1.6-.71-.22-1.92-.38-2.24 0-.49.58-.73 1.76-.48 2.47.38 1.09 1.12 2.16 1.98 2.94 2.33 2.11 4.74 4.13 7.25 6.01.77.58 1.97.57 3.19.89z" />
  <path d="m281.43 469.11c2.48-.34 4.97-.68 7.17-.98-.12 4.54-.29 8.53-.28 12.51 0 1.07.42 2.18.85 3.19.69 1.62 1.77 3.03 3.77 2.52 1.92-.48 3.46-1.73 3.28-3.91-.39-4.58.84-9.57-3.37-13.27.07-.24.14-.49.21-.73 1.94-.1 3.88-.2 6.44-.33-2.45 3.47-1.77 6.66-1.37 9.84.19 1.46.25 2.95.26 4.43.03 4.73-1.59 6.28-6.39 6.22-6.5-.08-9.05-2.8-8.31-9.1.41-3.49 1.48-7.05-2.75-9.48.16-.31.32-.62.48-.93z" />
  <path d="m327.43 470.29c-.44-.88-.68-1.99-1.37-2.57-.81-.68-2.01-.89-3.05-1.31-.3 1.01-.93 2.04-.85 3.01.16 1.92.56 3.86 1.14 5.7.83 2.62 1.93 5.16 3.13 8.3-1.36 1.03-3.78 1.23-6.22 1.03-.38-.03-.87-1.21-.96-1.91-.52-3.82-.88-7.65-1.41-11.47-.2-1.47-.65-3.27-2.58-2.84-.67.15-.99 1.96-1.43 3.03-.2.48-.31.99-.46 1.49-.28.07-.57.15-.85.22-.4-1.23-1.13-2.46-1.1-3.68.02-1.01.75-2.67 1.48-2.87 3.98-1.1 8.04-2.03 12.12-2.56 1.07-.14 2.82 1.1 3.39 2.16.59 1.11.13 2.78.13 4.2l-1.12.07z" />
  <path d="m248.67 486.78c-3.71-.44-6.85-.81-10-1.18 1.49-2.15 3.08-3.55 3.52-5.24 1.11-4.28-.82-8.11-2.71-11.82-.4-.78-.97-1.47-1.47-2.21l.37-.99c2.38.31 4.76.63 7.49.98-.43 1.04-.75 1.44-.73 1.83.06 1.1.1 2.26.49 3.27.16.42 1.55.87 1.77.66.8-.77 1.36-1.79 1.98-2.74.43-.66.75-1.88 1.21-1.93 1.51-.15 3.06.12 4.59.23-.07.56.06 1.32-.25 1.65-.76.78-1.72 1.4-2.63 2.02-5.97 4.07-7.18 8.49-3.63 15.46z" />
  <path d="m361.31 451.46c2.42-.86 4.81-1.72 6.74-2.41.54 2.44.76 4.42 1.45 6.22.92 2.4 2.27 4.64 3.33 7 .76 1.68 1.93 2.56 3.72 1.96 1.89-.64 3.96-1.22 3.97-3.89 0-.84.25-1.67.38-2.51l.72-.2c.85 1.13 1.81 2.19 2.49 3.41.26.47.12 1.68-.24 1.9-4.71 2.86-9.49 5.58-14.48 6.87-.46-6.95-3.43-12.49-8.08-18.35z" />
  <path d="m389.45 459.5c.03-7.27-3.26-12.59-10.11-16.51 2.96-1.74 5.3-3.12 7.45-4.39 1.51 7.11 5.25 12.11 10.46 17.14-2.17 1.31-4.56 2.74-6.95 4.18-.28-.14-.56-.29-.85-.43z" />
  <path d="m306.25 425.72c-.66.83-1.5 1.7-2.1 2.71-.37.62-.36 1.46-.52 2.2.87.1 1.85.5 2.59.23.78-.28 1.42-1.13 1.97-1.84 1.89-2.43 2.61-2.51 4.64-.15.64.75 1.02 1.72 1.11 1.88 2.17.75 3.77 1.31 5.37 1.87-9.71 1.9-19.14 4.42-28.88 3.28-.04-.24-.08-.47-.12-.71 2.07-.28 4.14-.55 6.21-.83 0-.31 0-.63.01-.94-.94-.28-1.87-.57-2.81-.85 0-.13 0-.26 0-.39 1.98-.13 3.98-.11 5.93-.45.8-.14 1.46-1.03 2.18-1.58-.78-.56-1.52-1.52-2.34-1.59-2.01-.16-4.05.16-6.08.18-1.93.02-3.88.06-5.78-.21-.87-.12-1.64-.96-2.43-1.47 1.57-1.14 3.01-1.73 3.69-2.8.73-1.14.75-2.74 1.27-4.96.75 1.67 1.15 2.56 1.74 3.85.85-1.1 1.46-1.88 2.68-3.45.01 3.62 1.04 6.23 4.04 6.59 2.43.3 4.98-.35 7.64-.59z" />
  <path d="m360.36 421.74c-1.59 7.2-11.43 8.25-19.78 2.8-3.09 3.56-5.11 3.53-6.78-.08 4.12-2.69 8.19-2.88 12.17.84 1.06-3.65-2.71-4.42-3-7.1 2.5-.1 3.56 1.79 4.81 3.18 2.41 2.68 2.72 2.71 4.98 0 .5-.59 1.22-1 1.84-1.49.33.68.51 1.51 1.02 2.01.55.54 1.4 1.03 2.12 1.04.71 0 1.42-.62 2.61-1.21z" />
  <path d="m292.86 416.56c6.28-3.46 13.02-3.72 19.91-3.03.08.32.16.64.23.96-1.79.48-3.73 1.66-5.33 1.31-4.02-.89-7.69.12-11.46.97-1.05.24-2.11.41-3.16.62-.06-.27-.13-.55-.19-.82z" />
  <path d="m364.36 428.75c-1.45-1.24-2.53-2.16-3.62-3.09.72-.7 1.72-2.12 2.1-1.97 1.45.58 2.69 1.67 4.01 2.56-.69.69-1.37 1.38-2.49 2.5z" />
  <path d="m285.16 433.67c.55.88 1.09 1.76 1.59 2.56-4.01.5-8.06 1.01-12.56 1.57 3.5-2.58 8.38-.08 10.96-4.14z" />
  <path d="m307.29 438.91c2.68-.26 5.36-.51 8.04-.77.05.35.09.71.14 1.06-2.64.38-5.29.75-7.93 1.13-.08-.47-.16-.95-.24-1.42z" />
  <path d="m186.93 403.62h8.46l.04.65c-2.82.13-5.64.27-8.46.4z" />
  <path d="m203.35 395.36c2.44-.13 4.88-.27 7.31-.4.02.35.04.7.06 1.04-2.47.22-4.93.44-7.4.66 0-.43.02-.86.03-1.3z" />
  <path d="m189.73 396.43c2.7-.19 5.41-.39 8.11-.58.02.26.05.52.07.79l-8.09.82c-.03-.34-.06-.68-.09-1.03z" />
  <path d="m257.8 399.01c1.86-.42 3.72-.83 5.58-1.25.08.35.17.71.25 1.06-1.87.47-3.74.94-5.61 1.41-.07-.41-.15-.82-.22-1.22z" />
  <path d="m255.78 452.96c-1.56-.4-3.12-.8-4.67-1.2.07-.37.15-.74.22-1.11 1.58.3 3.16.59 4.73.89-.09.47-.19.95-.28 1.42z" />
  <path d="m321.34 438.46c1.66-.42 3.33-.84 4.99-1.26.1.42.2.83.29 1.25-1.69.38-3.38.77-5.08 1.15-.07-.38-.14-.76-.21-1.14z" />
  <path d="m320.44 414.89c-1.39.55-2.78 1.1-4.17 1.65-.17-.43-.33-.85-.5-1.28 1.4-.53 2.8-1.07 4.19-1.6.16.41.32.82.48 1.23z" />
  <path d="m265.29 402.84c-1.62.14-3.25.28-4.87.42-.04-.34-.08-.67-.12-1.01 1.59-.25 3.18-.49 4.77-.74.07.45.15.89.22 1.34z" />
  <path d="m308.01 402.95h-4.25c-.02-.23-.04-.45-.06-.68 1.41-.19 2.83-.38 4.24-.57.02.42.04.83.06 1.25z" />
  <path d="m246.63 448.23c-.42.86-.83 1.72-1.25 2.57-.34-.14-.68-.28-1.02-.42l.99-2.78 1.27.63z" />
  <path d="m220.94 401.03h3.55c.01.21.03.42.04.63-1.18.08-2.36.17-3.54.25-.02-.29-.03-.59-.05-.88z" />
  <path d="m406.76 343.28c.85-3.11-.63-3.31-2.26-3.19-1.47.11-2.92.5-4.38.53-.7.01-1.41-.53-2.11-.83.46-.72.82-1.96 1.39-2.05 1.26-.22 2.62.15 3.95.24.98.06 1.98-.03 2.95.1 1.3.17 2.57.57 3.87.7 1.27.12 2.57.03 4.29.03-1.52.41-2.64.71-3.75 1.01.03.27.06.55.08.82 4.24 1.85 8.66-1.15 12.93-.03.03.24.05.49.08.73-5.45.63-10.89 1.25-17.04 1.96z" />
  <path d="m388.35 310.99c3.3-.18 6.6-.54 9.89-.48 3.09.05 6.17.55 10.19.95-1.61.6-2.7 1.4-3.74 1.34-5.42-.31-10.83-.84-16.25-1.3-.03-.17-.06-.34-.1-.51z" />
  <path d="m422.87 343.45c2.18-.47 4.36-.93 6.54-1.4.09.41.18.83.26 1.24-2.17.48-4.34.96-6.5 1.43-.1-.43-.2-.85-.3-1.28z" />
  <path d="m424.34 298.78c-2.84.97-5.67 1.94-8.51 2.91-.11-.32-.21-.64-.32-.96 2.85-.94 5.69-1.89 8.54-2.83.1.29.19.59.29.88z" />
  <path d="m459.6 297.79c1.11 1.16 2.02 2.12 3.59 3.77-3.25.22-5.74.4-8.24.52-.32.02-.73-.22-.97-.46-.89-.92-1.72-1.89-2.6-2.88 1.59-1.5 2.25-1.33 3.55.82.31.51 1.84.65 2.62.39.74-.25 1.23-1.25 2.05-2.17z" />
  <path d="m186.64 305.83c-4.97.19-9.5-1.08-13.47-4.1 5.06-.56 9.38 1.39 13.47 4.1z" />
  <path d="m189.79 303.17c-1.13-.1-2.26-.2-3.38-.29.12-.53.24-1.53.36-1.53 1.08 0 2.16.16 3.24.28-.07.51-.14 1.03-.21 1.54z" />
  <path d="m111.17 359.64c-2.22 1.07-4.44 2.14-6.66 3.21-.18-.36-.37-.71-.55-1.07 2.16-1.13 4.32-2.26 6.48-3.4z" />
  <path d="m72.22 318.04 9.3 1.32c-.03.24-.06.48-.08.72-3.22.64-6.34.34-9.35-.88.05-.39.09-.77.14-1.16z" />
  <path d="m487.12 319.8c-5.51-.94-11.26.64-17.2-1.49 2.74-1.95 14.63-.8 17.2 1.49z" />
  <path d="m193.5 351.76c-.31 1.26-.62 2.52-.93 3.79-.39-.08-.78-.16-1.17-.24.22-1.28.44-2.56.67-3.83.48.09.95.19 1.43.28z" />
  <path d="m447 353.91c-1.04-.37-2.08-.74-3.12-1.12.12-.36.25-.72.37-1.07 1.04.36 2.09.72 3.13 1.08-.13.37-.26.74-.38 1.11z" />
  <path d="m324.32 356.08c1.96-2.03 3.38-2.16 10.88-.96-.63 1.61-7.71 2.24-10.88.96z" />
</svg>